<svg xmlns="http://www.w3.org/2000/svg">
    <symbol id="icon-headphones" viewBox="0 0 24 24">
        <path d="M21 12.424V11a9 9 0 0 0-18 0v1.424A5 5 0 0 0 5 22a2 2 0 0 0 2-2v-6a2 2 0 0 0-2-2v-1a7 7 0 0 1 14 0v1a2 2 0 0 0-2 2v6a2 2 0 0 0 2 2 5 5 0 0 0 2-9.576ZM5 20a3 3 0 0 1 0-6Zm14 0v-6a3 3 0 0 1 0 6Z"/>
    </symbol>

    <symbol id="icon-vr" viewBox="0 0 14 14">
        <path d="m 11.774283,11.780265 c -0.163428,0.08171 -0.326856,0.163428 -0.490284,0.217904 -0.02724,0 -0.05448,0.02724 -0.08171,0.02724 -0.08171,0.02724 -0.13619,0.02724 -0.217904,0.05448 -0.02724,0 -0.02724,0 -0.05448,0 -0.08171,0 -0.163428,0.02724 -0.27238,0.02724 l -0.190666,0 -1.6615182,0 -0.708188,-0.735426 2.5603722,0 c 0.381332,0 0.762664,-0.163428 1.007806,-0.463046 0.27238,-0.299618 0.381332,-0.653712 0.326856,-1.062282 l -0.190666,-1.63428 c -0.08171,-0.68095 -0.653712,-1.198472 -1.3619,-1.198472 l -6.9729283,0 c -0.68095,0 -1.280186,0.517522 -1.3619,1.198472 l -0.1906661,1.63428 c -0.054476,0.381332 0.081714,0.762664 0.3268561,1.062282 0.27238,0.299618 0.626474,0.463046 1.007806,0.463046 l 2.5603721,0 -0.6809501,0.708188 -1.525328,0 -0.326856,0 c -0.081714,0 -0.163428,0 -0.27238,-0.02724 0,0 0,0 0,0 -0.081714,0 -0.163428,-0.02724 -0.245142,-0.05448 C 1.6689886,11.753029 0.87908663,10.717985 1.0152766,9.546751 l 0.13619,-1.22571 0.054476,-0.40857 c 0,-0.08171 0.027238,-0.13619 0.027238,-0.217904 0.054476,-0.217904 0.108952,-0.40857 0.217904,-0.599236 0.108952,-0.163428 0.217904,-0.326856 0.381332,-0.490284 0.027238,-0.05448 0.081714,-0.08171 0.13619,-0.108952 0.027238,-0.02724 0.081714,-0.05448 0.1089521,-0.08171 0.027238,-0.02724 0.054476,-0.05448 0.108952,-0.08171 0.163428,-0.108952 0.354094,-0.217904 0.54476,-0.299618 l 0,0 c 0.108952,-0.02724 0.217904,-0.08171 0.354094,-0.08171 0.13619,-0.02724 0.27238,-0.02724 0.435808,-0.02724 l 2.1790401,0 0,0.13619 c 0,0.190666 0.163428,0.326856 0.354094,0.326856 l 1.961136,0 c 0.190666,0 0.326856,-0.13619 0.354094,-0.326856 l 0,-0.13619 2.1518022,0 c 0.326856,0 0.626474,0.08171 0.926092,0.190666 l 0,0 c 0.108952,0.05448 0.217904,0.108952 0.326856,0.163428 0.02724,0.02724 0.08171,0.05448 0.108952,0.08171 0,0 0,0 0,0 0.05448,0.02724 0.08171,0.05448 0.108952,0.108952 0.02724,0.02724 0.05448,0.02724 0.08171,0.05448 0.05448,0.02724 0.08171,0.08171 0.13619,0.13619 0.02724,0.02724 0.02724,0.02724 0.05448,0.05448 0.02724,0.02724 0.02724,0.05448 0.05448,0.05448 0.02724,0.05448 0.08171,0.08171 0.108952,0.13619 0.108952,0.163428 0.190666,0.299618 0.245142,0.490284 0.05448,0.163428 0.108952,0.354094 0.13619,0.54476 l 0.163428,1.443614 0.02724,0.163428 c 0,0 0,0.02724 0,0.02724 0,0.926092 -0.490284,1.77047 -1.22571,2.206278 z m -8.4982563,-1.08952 c -0.190666,0 -0.381332,-0.08171 -0.490284,-0.217904 -0.13619,-0.13619 -0.190666,-0.326856 -0.163428,-0.517522 l 0.190666,-1.63428 c 0.027238,-0.354094 0.299618,-0.599236 0.653712,-0.599236 l 7.0001663,0 c 0.354094,0 0.626474,0.245142 0.653712,0.599236 l 0.190666,1.63428 c 0.02724,0.190666 -0.02724,0.381332 -0.163428,0.517522 -0.13619,0.13619 -0.299618,0.217904 -0.490284,0.217904 l -7.3814983,0 z M 5.5367807,3.282009 5.5095427,2.818963 c -1.252948,0.245142 -2.233516,1.171234 -2.614848,2.342468 0.190666,-0.02724 0.381332,-0.05448 0.599236,-0.05448 l 0.571998,0 c 0.245142,-0.844378 0.762664,-1.49809 1.470852,-1.824946 z M 8.4512468,2.791725 8.4240088,3.227533 c 0.762664,0.299618 1.334662,0.980568 1.6342802,1.879422 l 0.40857,0 c 0.27238,0 0.517522,0.02724 0.762664,0.108952 C 10.820953,3.962959 9.7586708,3.009629 8.4512468,2.791725 Z m -2.31523,-0.898854 1.661518,0 -0.027238,0.626474 -0.027238,0.217904 0,0 -0.081714,2.369706 0,0 -0.027238,0.571998 -1.307424,0 -0.027238,-0.435808 z"/>
    </symbol>

    <symbol id="icon-gamepad" viewBox="0 0 512 512">
        <g>
            <g>
                <circle cx="385.217" cy="181.24" r="13.013"/>
            </g>
        </g>
        <g>
            <g>
                <circle cx="385.217" cy="228.226" r="13.013"/>
            </g>
        </g>
        <g>
            <g>
                <circle cx="408.71" cy="204.733" r="13.013"/>
            </g>
        </g>
        <g>
            <g>
                <circle cx="361.724" cy="204.733" r="13.013"/>
            </g>
        </g>
        <g>
            <g>
                <path d="M135.982,172.478h-16.656c-3.22,0-5.83,2.611-5.83,5.829v6.003c0.001,1.816,0.847,3.528,2.289,4.631l8.329,6.369    c2.09,1.599,4.992,1.599,7.082,0l8.329-6.369c1.442-1.103,2.288-2.815,2.288-4.631v-6.003    C141.813,175.087,139.202,172.478,135.982,172.478z"/>
            </g>
        </g>
        <g>
            <g>
                <path d="M139.525,223.417l-8.329-6.369c-2.09-1.599-4.992-1.599-7.082,0l-8.329,6.369c-1.442,1.103-2.288,2.815-2.288,4.631v6.003    c0,3.22,2.611,5.829,5.83,5.829h16.656c3.22,0,5.831-2.611,5.831-5.829v-6.003C141.813,226.233,140.968,224.52,139.525,223.417z"/>
            </g>
        </g>
        <g>
            <g>
                <path d="M155.527,192.02h-6.003c-1.816,0-3.528,0.846-4.631,2.288l-6.369,8.329c-1.599,2.09-1.599,4.992,0,7.082l6.369,8.329    c1.103,1.442,2.815,2.288,4.631,2.288h6.003c3.22,0,5.829-2.611,5.829-5.829v-16.656    C161.358,194.631,158.747,192.02,155.527,192.02z"/>
            </g>
        </g>
        <g>
            <g>
                <path d="M116.785,202.637l-6.369-8.329c-1.103-1.442-2.815-2.288-4.631-2.288h-6.003c-3.22,0-5.831,2.611-5.831,5.829v16.656    c0,3.22,2.611,5.83,5.831,5.83h6.003c1.816,0,3.528-0.846,4.631-2.288l6.369-8.329    C118.384,207.631,118.384,204.728,116.785,202.637z"/>
            </g>
        </g>
        <g>
            <g>
                <path d="M242.531,193.634h-42.332c-3.993,0-7.228,3.237-7.228,7.228v14.249c0,3.993,3.237,7.228,7.228,7.228h42.332    c3.993,0,7.228-3.237,7.228-7.228v-14.249C249.76,196.869,246.523,193.634,242.531,193.634z"/>
            </g>
        </g>
        <g>
            <g>
                <path d="M317.137,193.634h-42.332c-3.993,0-7.228,3.237-7.228,7.228v14.249c0,3.993,3.237,7.228,7.228,7.228h42.332    c3.992,0,7.228-3.237,7.228-7.228v-14.249C324.366,196.869,321.13,193.634,317.137,193.634z"/>
            </g>
        </g>
        <g>
            <g>
                <path d="M509.976,339.684l-39.021-158.733c-6.456-26.256-23.039-48.066-46.185-61.217c-2.256-19.02-18.481-33.82-38.097-33.82    h-40.641c-20.778,0-37.751,16.606-38.347,37.243H204.332c-0.596-20.637-17.569-37.243-38.348-37.243h-40.64    c-19.616,0-35.841,14.8-38.096,33.819c-23.146,13.152-39.73,34.962-46.185,61.218L2.044,339.684    c-4.447,18.092-1.583,36.832,8.064,52.77s24.924,27.164,43.016,31.612c30.182,7.418,60.737-6.241,76.084-31.229l21.922-35.695    c11.227,9.73,25.852,15.638,41.841,15.638c35.281,0,63.983-28.702,63.983-63.983c0-0.953-0.031-1.898-0.072-2.841h7.704    c-0.041,0.943-0.072,1.888-0.072,2.841c0,35.281,28.702,63.983,63.983,63.983c13.086,0,25.262-3.956,35.41-10.725l18.905,30.781    c15.222,24.787,45.671,38.706,76.085,31.23C496.241,414.883,519.155,377.031,509.976,339.684z M192.971,339.423    c-16.914,0-30.628-13.777-30.628-30.628c0-16.889,13.74-30.629,30.628-30.629c16.874,0,30.628,13.755,30.628,30.629    C223.599,325.683,209.859,339.423,192.971,339.423z M328.497,339.423c-16.888,0-30.628-13.74-30.628-30.628    c0-16.891,13.77-30.629,30.628-30.629c16.889,0,30.629,13.74,30.629,30.629C359.125,325.62,345.435,339.423,328.497,339.423z     M450.932,391.674c-15.81,3.888-31.722-3.305-39.698-16.295l-24.545-39.966c3.7-8.066,5.792-17.345,5.792-26.618    c0-35.281-28.702-63.984-63.984-63.984c-21.335,0-41.009,10.709-52.749,27.788H245.72c-11.639-16.928-31.265-27.788-52.749-27.788    c-35.281,0-63.983,28.703-63.983,63.984c0,5.775,0.809,11.631,2.277,16.954l-30.48,49.631    c-7.966,12.972-23.87,20.186-39.699,16.295c-9.44-2.32-17.41-8.178-22.445-16.493s-6.529-18.094-4.207-27.534l39.021-158.733    c4.816-19.595,18.231-35.424,36.804-43.428c6.115-2.636,10.077-8.657,10.077-15.316v-5.89c0-2.762,2.247-5.009,5.009-5.009h40.64    c2.762,0,5.009,2.247,5.009,5.009v15.556c0,9.21,7.467,16.678,16.677,16.678h136.675c9.21,0,16.678-7.467,16.678-16.678v-15.556    c0-2.762,2.247-5.009,5.009-5.009h40.641c2.762,0,5.009,2.247,5.009,5.009v5.892c0,6.659,3.961,12.68,10.077,15.316    c18.572,8.003,31.987,23.832,36.805,43.428l39.021,158.732C482.375,367.133,470.418,386.884,450.932,391.674z"/>
            </g>
        </g>
        <g>
        </g>
        <g>
        </g>
        <g>
        </g>
        <g>
        </g>
        <g>
        </g>
        <g>
        </g>
        <g>
        </g>
        <g>
        </g>
        <g>
        </g>
        <g>
        </g>
        <g>
        </g>
        <g>
        </g>
        <g>
        </g>
        <g>
        </g>
        <g>
        </g>
    </symbol>

    <symbol id="icon-mobile-gaming" viewBox="0 0 498 289.94">
        <path d="M0,236.48V53.45C0,38.75,6,25.39,15.7,15.7,25.37,6.02,38.74,0,53.45,0H444.54c14.7,0,28.07,6.02,37.76,15.7,9.68,9.69,15.7,23.05,15.7,37.76V236.48c0,14.7-6.02,28.07-15.7,37.76-9.69,9.68-23.05,15.7-37.76,15.7H53.45c-14.71,0-28.08-6.02-37.76-15.7-9.69-9.69-15.69-23.05-15.69-37.76H0Zm365.19-83.54c0-5.23,2.12-9.96,5.55-13.4,3.43-3.42,8.17-5.55,13.4-5.55s9.98,2.12,13.41,5.55c3.42,3.43,5.55,8.17,5.55,13.4s-2.12,9.98-5.55,13.41c-3.43,3.42-8.17,5.55-13.41,5.55s-9.96-2.12-13.4-5.55c-3.42-3.43-5.55-8.17-5.55-13.41Zm9.58-9.36c-2.39,2.39-3.88,5.71-3.88,9.36s1.49,6.98,3.88,9.38c2.39,2.39,5.71,3.88,9.36,3.88s6.98-1.49,9.38-3.88c2.39-2.39,3.88-5.71,3.88-9.38s-1.49-6.97-3.88-9.36-5.71-3.88-9.38-3.88-6.97,1.49-9.36,3.88Zm-25.86,25.64c5.24,0,9.98,2.12,13.4,5.55,3.43,3.43,5.55,8.17,5.55,13.41s-2.12,9.96-5.55,13.4c-3.42,3.43-8.16,5.55-13.4,5.55s-9.96-2.12-13.4-5.55c-3.42-3.43-5.55-8.17-5.55-13.4s2.12-9.98,5.55-13.41c3.43-3.42,8.17-5.55,13.4-5.55Zm9.38,9.58c-2.39-2.39-5.71-3.88-9.38-3.88s-6.97,1.49-9.36,3.88-3.88,5.71-3.88,9.38,1.49,6.97,3.88,9.36c2.39,2.41,5.71,3.88,9.36,3.88s6.98-1.48,9.38-3.88c2.39-2.39,3.88-5.71,3.88-9.36s-1.49-6.98-3.88-9.38Zm-63.55-25.86c0-5.23,2.12-9.96,5.55-13.4,3.42-3.42,8.17-5.55,13.4-5.55s9.98,2.12,13.4,5.55c3.43,3.43,5.55,8.17,5.55,13.4s-2.12,9.98-5.55,13.41c-3.42,3.42-8.17,5.55-13.4,5.55s-9.98-2.12-13.4-5.55c-3.43-3.43-5.55-8.17-5.55-13.41Zm9.58-9.36c-2.39,2.39-3.87,5.71-3.87,9.36s1.48,6.98,3.88,9.38c2.39,2.39,5.7,3.88,9.36,3.88s6.97-1.49,9.38-3.88c2.39-2.39,3.88-5.71,3.88-9.38s-1.49-6.97-3.88-9.36-5.71-3.88-9.38-3.88-6.98,1.49-9.38,3.88h0Zm44.59-44.81c5.24,0,9.98,2.12,13.4,5.55,3.43,3.43,5.55,8.17,5.55,13.4s-2.12,9.98-5.55,13.41c-3.42,3.42-8.16,5.55-13.4,5.55s-9.96-2.12-13.4-5.55c-3.42-3.43-5.55-8.17-5.55-13.41s2.12-9.96,5.55-13.4c3.43-3.43,8.17-5.55,13.4-5.55h0Zm9.38,9.59c-2.39-2.41-5.71-3.88-9.38-3.88s-6.97,1.49-9.36,3.88-3.88,5.71-3.88,9.36,1.49,6.98,3.88,9.37c2.39,2.39,5.71,3.88,9.36,3.88s6.98-1.49,9.38-3.88c2.39-2.39,3.88-5.71,3.88-9.38s-1.49-6.97-3.88-9.36h0Zm-91.1,58.31v-28.39h-34.39v28.39h34.39Zm7.6-32.19v35.98c0,2.1-1.71,3.8-3.8,3.8h-41.99c-2.09,0-3.8-1.71-3.8-3.8v-35.98c0-2.1,1.71-3.8,3.8-3.8h41.99c2.1,0,3.8,1.71,3.8,3.8Zm-95.93,73.77h24.59v-30.59h-24.59v30.59Zm30.29,11.4h-35.98c-3.15,0-5.7-2.55-5.7-5.7v-41.99c0-3.15,2.55-5.7,5.7-5.7h35.98c3.15,0,5.71,2.55,5.71,5.7v41.99c0,3.15-2.56,5.7-5.71,5.7Zm-101.62-49.19v-35.98c0-2.1,1.7-3.8,3.8-3.8h41.99c2.1,0,3.8,1.71,3.8,3.8v35.98c0,2.1-1.71,3.8-3.8,3.8h-41.99c-2.1,0-3.8-1.71-3.8-3.8Zm7.6-32.19v28.39h34.39v-28.39h-34.39Zm58.04-52.98h35.98c3.15,0,5.71,2.55,5.71,5.7v41.99c0,3.15-2.56,5.7-5.71,5.7h-35.98c-3.15,0-5.7-2.55-5.7-5.7v-41.99c0-3.15,2.55-5.7,5.7-5.7Zm30.29,11.4h-24.59v30.58h24.59v-30.58ZM70.7,253.94V36.03c0-2.1,1.7-3.8,3.8-3.8H423.49c2.1,0,3.8,1.71,3.8,3.8V253.94c0,2.09-1.71,3.8-3.8,3.8H74.5c-2.1,0-3.8-1.71-3.8-3.8h0Zm7.6-214.11V250.13H419.68V39.83H78.3Zm359.75,105.15c0-5.41,2.2-10.31,5.74-13.87,3.55-3.54,8.45-5.74,13.87-5.74s10.32,2.2,13.87,5.74c3.55,3.55,5.74,8.45,5.74,13.87s-2.19,10.3-5.74,13.86h0c-3.54,3.57-8.45,5.77-13.87,5.77s-10.31-2.2-13.87-5.75c-3.54-3.55-5.74-8.45-5.74-13.87h0Zm11.12-8.49c-2.18,2.16-3.52,5.17-3.52,8.49s1.34,6.32,3.52,8.5c2.16,2.16,5.17,3.51,8.49,3.51s6.32-1.34,8.5-3.51c2.16-2.16,3.51-5.17,3.51-8.5s-1.34-6.32-3.51-8.5c-2.18-2.16-5.18-3.51-8.5-3.51s-6.32,1.34-8.49,3.52h0ZM46.3,179.21c0,2.1-1.71,3.8-3.8,3.8s-3.8-1.71-3.8-3.8v-1.34c0-2.1,1.7-3.8,3.8-3.8s3.8,1.7,3.8,3.8v1.34Zm0-25.9c0,2.1-1.71,3.8-3.8,3.8s-3.8-1.7-3.8-3.8v-42.57c0-2.1,1.7-3.8,3.8-3.8s3.8,1.71,3.8,3.8v42.57ZM11.41,53.47V236.5c0,11.55,4.73,22.07,12.36,29.68,7.62,7.62,18.13,12.36,29.69,12.36H444.55c11.55,0,22.06-4.73,29.68-12.36,7.62-7.61,12.36-18.13,12.36-29.68V53.47c0-11.55-4.73-22.06-12.36-29.68-7.62-7.62-18.13-12.36-29.68-12.36H53.46c-11.56,0-22.07,4.73-29.69,12.36s-12.36,18.13-12.36,29.68Z"/>
    </symbol>
</svg>