<svg xmlns="http://www.w3.org/2000/svg">
    <symbol id="icon-logo" viewBox="0 0 1080 1080">
        <g id="Layer_1-2">
            <g>
                <path class="cls-3" style="fill: #d9aa6d;" d="M1079.92,457.02v71.99c-.96,.88-.86,2.1-1.04,3.24-2.47,15.15-6.18,29.98-11.93,44.24-7.11,17.64-16.34,33.93-30.81,46.66-14.81,13.04-31.7,18.8-51.23,12.83-4.05-1.24-5.14-.29-5.81,3.45-3.25,18.03-7.66,35.78-13.12,53.27-31.41,100.65-87.18,184.51-171.68,248.46-20.2,15.29-41.54,28.84-64.5,39.68,.04-8.89,3.23-17.26,4.38-26.01,1.26-9.62,2.48-19.37,5.26-28.82,1.14-3.89,.87-8.23-.75-12.36-2.28,3.68-5,6.67-6.63,10.59-5.08,12.25-10.65,24.3-16.11,36.4-2.5,5.55-8,7.75-12.64,10.85-3.43,2.29-6.72,4.72-11.3,4.59-8.65-.24-17.32-.15-25.98-.03-3.39,.05-5.67-1.27-7.28-4.21-8.57-15.62-22.51-25.31-38.13-32.25-14.41-6.4-29.66-10.46-45.62-11.73-29.05-2.33-57.45-.73-84.55,11.28-13.57,6.01-26.9,13.18-34.71,25.89-5.96,9.71-12.94,12.46-23.11,11.02-1.63-.23-3.34-.17-4.99,0-6.71,.68-12.83-.57-18.34-4.72-2.24-1.68-4.92-2.77-7.32-4.26-3.25-2.01-6.34-4.02-8.02-7.87-7.29-16.72-14.78-33.35-22.22-50.01-.65-1.46-.99-3.78-2.99-3.47-2.52,.39-1.49,2.95-1.68,4.58-1.48,12.58,2.89,24.56,3.98,36.91,1.17,13.21,3.11,26.39,4.31,39.63-1.09-.35-2.24-.59-3.26-1.08-56.79-26.99-105.5-64.63-146.44-112.2-59.61-69.25-96.47-149.43-113.28-239.01-.77-4.12-1.4-5.04-5.38-2.74-11.13,6.43-23.18,8.15-35.69,5.18-14.76-3.51-25.94-12.56-35.27-24.03-17.83-21.91-26.59-47.73-31.95-75.01-1.62-8.27-1.76-16.76-3.99-24.92v-39.99c1.31-.95,.9-2.4,1.04-3.67,1.53-14.42,3.86-28.7,8.02-42.62,6.89-23.09,16.65-44.64,34.31-61.72,10.34-9.99,22.29-16.73,37.14-17.28,18.08-.67,31.97,7.67,43.93,20.15,1.75,1.83,3.24,2.71,5.57,1.61-.45,4.15,1.62,6.77,4.96,8.93,8.14,5.27,17.42,9.28,20.79,19.75,2.22,6.9,8.21,12.62,7.98,20.18-1.01,33.48,1.87,66.89,.65,100.41-1.32,36.27-.41,72.62-.65,108.94-.05,7.99-.3,15.98,.27,23.95,.12,1.65-.32,3.64,2.52,5,.93-7.55,1.54-14.62,2.7-21.6,6.15-37.09,12.34-74.18,18.73-111.23,2.06-11.92,3.17-23.99,7.63-35.51,6.51-16.83,14.57-32.81,23.78-48.25,3.88-6.5,6.9-13.52,14.49-17.23,6.85-3.35,13.06-7.97,19.69-11.79,4.76-2.74,8.33-6.38,10.98-11.21,15.6-28.43,31.3-56.79,46.99-85.17,3.39-6.14,3.6-6.14,9.87-3.23,1.17,.54,2.56,.83,3.85,.87,7.89,.25,15.58,.46,23.53,2.27,9.32,2.12,19.31,.38,29.11,2.26,11.69,2.24,23.69,.36,35.85,2.6,19.5,3.58,40-2.43,59.68,3.59,43.15,0,86.3-.01,129.45-.03,1.98,0,4.07,.27,5.74-1.16,2.08-1.78,4.52-1.83,7.06-1.82,14.83,.04,29.66,.04,44.48,.03,2.32,0,4.79,.32,6.76-1.21,2.31-1.79,4.91-1.6,7.58-1.78,10.86-.71,21.72-.41,32.65-1.41,12.59-1.16,25.22-2.94,37.91-3.42,2.81-.11,5.95,1.52,8.35-.17,6.42-4.53,13.58-2.03,20.38-2.63,3.05-.27,5.07,1.55,6.61,4.37,14.44,26.41,28.87,52.82,43.64,79.04,3.27,5.81,5.28,12.7,11.75,16.38,5.2,2.97,10.3,6.11,15.32,9.37,6.75,4.38,14.35,7.49,18.42,15.43,7.04,13.75,16.02,26.47,21.73,40.93,2.87,7.26,6.77,14.31,8.36,21.84,3.34,15.77,5.45,31.8,8.07,47.72,5.98,36.28,12.8,72.42,17.76,108.86,.18,1.29-.14,3.07,1.74,3.74,1.7-2.41,1.54-5.12,1.54-7.76,.01-25.49,.02-50.98-.07-76.47,0-2.63-.38-5.36-1.14-7.87-5.43-17.92-8.65-36.2-10.12-54.87-2.62-33.21,2.13-65.59,12.19-97.01,5.33-16.65,14.87-31.6,27.02-44.54,1.5-1.59,2.92-3.16,3.51-5.32,3.21-.4,5.16-2.89,7.54-4.63,18.78-13.73,40.03-14.71,59.32-2.69,7.58,4.72,13.94,10.8,19.5,17.71,13.49,16.78,21.77,36.12,27.26,56.72,2.35,8.79,4.07,17.75,6.08,26.64Zm-567.8,287.18c-10.32-.68-20.33,.87-30.5,2.78-11.69,2.19-23.35,4.71-34.63,8.06-15.96,4.74-31.67,10.83-45.25,20.99-8.78,6.57-17.78,13.11-19.8,25.03-1.01,5.96-.73,11.93,.49,17.85,.49,2.36,1.29,4.71,3.84,5.38,2.84,.74,4.16-1.63,5.4-3.55,3.56-5.53,7.98-10.26,13.25-14.1,16.66-12.17,35.67-19.35,55.47-23.87,18.01-4.11,36.16-8.25,54.85-8.3,.5,0,.99-.08,1.49-.14,17.73-1.87,35.51-1.81,53.24-.39,6.81,.55,13.86-.75,20.36,1.21,9.9,2.99,20.2,3.07,30.2,5.32,6.92,1.56,14.09,2.84,20.6,5.17,8.84,3.15,18.01,5.51,26.53,9.73,12.31,6.09,24.11,12.6,31.82,24.56,1.38,2.14,2.94,4.2,6.03,3.2,3.01-.98,4.03-3.35,4.06-6.21,.06-5.99,0-11.99-.02-17.98,0-1.37-.35-2.62-1.32-3.66-4.53-4.87-8.74-10.08-13.61-14.56-11.8-10.85-26.3-17.16-41.13-22.33-12.29-4.28-24.95-7.59-37.77-10.12-12.17-2.4-24.25-5.53-36.85-4.05-22.25,0-44.5-.01-66.75-.02Zm-126.67-176.38c-1.14,11.5,.38,21.39,2.97,31.25,2.9,11.09,4.51,22.58,11.12,32.38,.9,1.33,1.55,2.87,3.43,3.39,6.33,1.77,11.41-.26,14.29-6.35,1.84-3.89,3.63-7.83,4.82-12.04,3.4-12.05,5.45-24.31,6.95-36.73,4.53-37.51,3.07-74.77-4.41-111.77-1.71-8.46-4.21-16.82-9.08-24.17-3.66-5.52-12.56-5.54-16.13-.06-8.96,13.79-9.91,30.1-13.83,45.42-1.4,5.5-.44,11.61-.5,17.43-.02,1.81,.14,3.37,1.83,4.84,4.01,3.49,7.69,7.37,11.47,11.13,7.51,7.45,8.17,7.04-.15,14-10.45,8.73-16.93,18.41-12.77,31.26Zm322.46-34.47c-1.15-14.92,1.99-34.37-3.09-53.62-3.27-12.38-4.92-25.18-11.86-36.3-3.18-5.09-12.66-5.06-15.86,.08-5.18,8.31-7.73,17.59-9.78,27.07-2.29,10.6-3.35,21.36-4.64,32.1-.47,3.92,.35,6.8,3.05,9.44,4.64,4.54,9.1,9.29,13.89,13.68,2.94,2.69,2.86,4.8,.08,7.45-4.94,4.72-9.63,9.69-14.59,14.39-3.03,2.87-4.3,6.1-3.79,10.28,.8,6.61,1.26,13.25,1.99,19.87,1.9,17.23,4.08,34.43,11.83,50.27,1.59,3.26,2.74,7.02,7.88,7.07,5.24,.05,9.57-.45,11.6-6.08,.62-1.71,1.69-3.26,2.29-4.98,6.57-18.72,11.38-37.77,11.04-57.83-.16-9.49-.03-18.99-.03-32.88Zm-161.32,368.34c13.15,0,26.31,.15,39.46-.05,11.83-.18,23.65-.9,35.36-2.76,.77-.12,1.9-.34,2.17-.87,1.3-2.55,3.6-1.85,5.68-2.11,3.43-.42,7.76,1.81,9.73-3.31,.21-.54,2.14-.66,3.25-.58,5.95,.4,9.9-4.19,15-5.87,3.36-1.11,6.16-3.28,9.18-4.83,3.09-1.58,5.42-3.59,7.46-6,4.24-5,2.56-11.02,1.86-16.62-.35-2.79-3.02-2.15-4.65-.8-1.23,1.02-1.75,2.86-2.93,3.96-2,1.84-2.42,5.59-5.32,5.9-4.14,.44-5.39,4.99-9.55,5.73-1.36,.24-3.5,1.99-5.73,2.49-5.09,1.15-9.78,4.13-15.33,3.22-.28-.05-.91,.59-.97,.97-.59,3.5-3.33,2.51-5.49,2.7-2.96,.27-7.03-1.28-8.66,.71-2.5,3.04-5.17,2.19-7.9,2.31-3.82,.17-7.66,.09-11.49,.03-2.21-.04-4.57-.12-6.06,1.62-1.89,2.21-4.19,2.36-6.73,2.36-26.31-.02-52.62,0-78.92-.03-1.47,0-3.51,.2-4.3-.63-4.34-4.55-9.9-3.78-14.96-3.13-8.38,1.07-15.55-4.87-23.85-3.41-.47,.08-1.48-.56-1.56-.99-.59-3.41-3.18-2.93-5.39-2.72-5.3,.5-9.16-4.3-14.43-3.78-.37,.04-1.01-.45-1.16-.84-1.4-3.6-7.16-1.74-7.79-6.24-6.07-.47-7.89-4.72-8.53-9.83-.31-2.45-1.92-2.3-3.6-2.34-1.8-.04-3.15,.17-3.45,2.52-1.01,7.97-1.46,15.56,6.04,21.25,1.46,1.11,3.36,.57,4.31,1.95,3.05,4.45,8.27,4.5,12.57,6.42,4.15,1.85,7.77,5.2,12.87,4.08,.31-.07,1.08,.46,1.1,.75,.37,4.37,3.71,2.77,6.05,3,2.15,.21,5.09-.71,6.34,.39,5.62,4.93,12.91,3.61,18.95,4.18,20.35,1.93,40.89,1.75,61.38,1.22Zm-.98-164.33c3.64-.79,7.72,.88,10.4-1.44,3.04-2.62,6.4-4.19,9.97-5.42,6.4-2.21,11.29-6.37,15.39-11.48,2.63-3.28,5.76-5.49,9.73-6.56,8.44-2.27,16.41-5.77,23.33-11,7.72-5.84,15.04-12.35,13.43-23.68-.18-1.26,.33-2.95-1.09-3.62-1.76-.83-2.79,.81-3.66,1.89-8.74,10.89-20.96,16.05-33.63,20.44-2.31,.8-4.11,2.01-5.33,4.19-5.51,9.86-13.54,17.48-23.16,22.91-8.99,5.08-19.3,4.99-28.37,.54-8.95-4.39-16.49-11.21-22.09-19.79-2.26-3.47-5.57-5.52-9.24-7.32-8.92-4.39-18.34-7.97-25.86-14.78-2.45-2.22-4.5-4.87-6.8-7.25-.95-.99-2.75-2.04-3.04-.05-.69,4.84-1.88,9.98,1,14.52,7.88,12.41,20.28,18.36,33.61,22.67,4.29,1.39,7.55,3.51,10.61,6.87,9.37,10.23,21.13,16.24,34.78,18.37Z"/>
                <path class="cls-5" style="fill: #3c3c3b;" d="M130.09,369.5c7.5-21.18,15.93-41.96,25.63-62.26,18.65-39.02,42.54-74.52,70.82-107.13,33.46-38.58,72.22-70.8,116.67-96.04,39.68-22.54,81.85-38.21,126.75-46.92,23.05-4.47,46.14-5.81,69.47-5.48,17.15,.24,34.35-.3,51.45,.76,15.75,.97,31.31,4.2,46.69,7.78,42.45,9.9,82.41,26.08,119.8,48.54,55.8,33.52,101.76,77.51,139.34,130.51,26.37,37.18,46.56,77.5,62.04,120.27,.45,1.25,.97,2.48,1.46,3.72-.59,2.16-2.02,3.73-3.51,5.32-12.15,12.94-21.7,27.89-27.02,44.54-10.06,31.42-14.81,63.8-12.19,97.01,1.47,18.68,4.69,36.95,10.12,54.87,.76,2.51,1.13,5.24,1.14,7.87,.1,25.49,.09,50.98,.07,76.47,0,2.64,.16,5.35-1.54,7.76-1.87-.67-1.56-2.45-1.74-3.74-4.97-36.44-11.78-72.59-17.76-108.86-2.63-15.92-4.74-31.95-8.07-47.72-1.59-7.53-5.5-14.58-8.36-21.84-5.71-14.47-14.69-27.19-21.73-40.93-4.07-7.94-11.67-11.05-18.42-15.43-5.02-3.26-10.12-6.41-15.32-9.37-6.46-3.69-8.47-10.57-11.75-16.38-14.77-26.22-29.21-52.63-43.64-79.04-1.54-2.83-3.57-4.65-6.61-4.37-6.8,.61-13.96-1.9-20.38,2.63-2.4,1.69-5.54,.07-8.35,.17-12.69,.48-25.33,2.27-37.91,3.42-10.93,1-21.79,.7-32.65,1.41-2.67,.17-5.27-.02-7.58,1.78-1.97,1.53-4.44,1.21-6.76,1.21-14.83,0-29.66,.01-44.48-.03-2.54,0-4.98,.04-7.06,1.82-1.67,1.43-3.76,1.16-5.74,1.16-43.15,.02-86.3,.02-129.45,.03-19.68-6.02-40.18,0-59.68-3.59-12.16-2.23-24.16-.36-35.85-2.6-9.8-1.88-19.79-.13-29.11-2.26-7.95-1.81-15.64-2.02-23.53-2.27-1.3-.04-2.68-.33-3.85-.87-6.27-2.91-6.47-2.9-9.87,3.23-15.68,28.38-31.39,56.75-46.99,85.17-2.65,4.83-6.22,8.47-10.98,11.21-6.63,3.82-12.84,8.44-19.69,11.79-7.59,3.71-10.61,10.73-14.49,17.23-9.22,15.44-17.27,31.42-23.78,48.25-4.46,11.53-5.57,23.59-7.63,35.51-6.4,37.05-12.58,74.14-18.73,111.23-1.16,6.98-1.77,14.05-2.7,21.6-2.84-1.35-2.4-3.35-2.52-5-.57-7.98-.32-15.96-.27-23.95,.24-36.32-.67-72.67,.65-108.94,1.22-33.52-1.66-66.93-.65-100.41,.23-7.56-5.77-13.29-7.98-20.18-3.37-10.48-12.65-14.48-20.79-19.75-3.34-2.16-5.41-4.78-4.96-8.93Z"/>
                <path class="cls-4" style="fill: #413f3d;" d="M512.12,744.2c22.25,0,44.5,.01,66.75,.02,1.03,2.56,3.6,2.03,5.54,2.66,5.14,1.67,10.6,.77,15.83,1.77,15.98,3.04,32.08,5.57,47.56,10.83,12.32,4.19,24.38,8.96,35.46,15.85,7.62,4.74,12.62,11.9,18.13,18.84,4.51,5.67,6.84,10.85,5.66,17.78-.32,1.9,.54,4.41-1.69,5.39-2.6,1.15-3.83-1.45-5.24-2.89-8.34-8.5-17.55-15.8-28.54-20.55-18.82-8.14-38.33-13.95-58.53-17.58-21.15-3.79-42.47-5.73-63.9-6.52-11.32-.42-22.55,1.01-33.83,1.8-22.29,1.56-44.16,4.97-65.59,11.29-14.75,4.35-28.88,10-41.89,18.37-6.8,4.38-12.71,9.59-17.71,15.91-.87,1.11-1.9,2.75-3.63,2.01-1.64-.7-1.34-2.52-1.35-3.99-.03-4.5,.06-8.99-.02-13.49-.05-2.81,.93-5.25,2.47-7.46,7.21-10.32,16.91-17.73,27.93-23.52,10.18-5.34,20.94-9.16,31.94-12.53,16.76-5.15,33.84-8.32,51.23-10.18,4.63-.49,9.65-.09,13.43-3.8Z"/>
                <path class="cls-4" style="fill: #413f3d;" d="M385.45,567.82c-4.16-12.86,2.32-22.53,12.77-31.26,8.32-6.96,7.66-6.55,.15-14-3.78-3.75-7.46-7.63-11.47-11.13-1.68-1.47-1.85-3.02-1.83-4.84,.06-5.83-.9-11.94,.5-17.43,3.92-15.33,4.87-31.63,13.83-45.42,3.56-5.49,12.47-5.47,16.13,.06,4.87,7.35,7.37,15.71,9.08,24.17,7.47,37,8.94,74.25,4.41,111.77-1.5,12.42-3.55,24.68-6.95,36.73-1.19,4.21-2.98,8.14-4.82,12.04-2.88,6.09-7.96,8.12-14.29,6.35-1.88-.52-2.53-2.06-3.43-3.39-6.61-9.79-8.21-21.29-11.12-32.38-2.58-9.86-4.11-19.75-2.97-31.25Z"/>
                <path class="cls-4" style="fill: #413f3d;" d="M707.91,533.35c0,13.89-.13,23.39,.03,32.88,.34,20.06-4.47,39.11-11.04,57.83-.6,1.72-1.67,3.27-2.29,4.98-2.03,5.64-6.37,6.14-11.6,6.08-5.15-.05-6.29-3.81-7.88-7.07-7.75-15.84-9.93-33.03-11.83-50.27-.73-6.62-1.19-13.26-1.99-19.87-.51-4.18,.76-7.41,3.79-10.28,4.96-4.7,9.65-9.67,14.59-14.39,2.78-2.65,2.86-4.76-.08-7.45-4.79-4.39-9.24-9.14-13.89-13.68-2.7-2.64-3.52-5.52-3.05-9.44,1.29-10.74,2.35-21.5,4.64-32.1,2.05-9.48,4.6-18.76,9.78-27.07,3.21-5.14,12.69-5.17,15.86-.08,6.95,11.12,8.59,23.92,11.86,36.3,5.08,19.25,1.94,38.7,3.09,53.62Z"/>
                <path class="cls-5" style="fill: #3c3c3b;" d="M546.59,901.69c-20.48,.53-41.02,.71-61.38-1.22-6.04-.57-13.33,.75-18.95-4.18-1.25-1.1-4.2-.18-6.34-.39-2.34-.23-5.68,1.37-6.05-3-.02-.29-.79-.82-1.1-.75-5.1,1.12-8.72-2.24-12.87-4.08-4.31-1.92-9.52-1.96-12.57-6.42-.95-1.38-2.84-.84-4.31-1.95-7.5-5.69-7.06-13.28-6.04-21.25,.3-2.35,1.65-2.56,3.45-2.52,1.69,.04,3.3-.11,3.6,2.34,.64,5.11,2.46,9.36,8.53,9.83,.63,4.51,6.38,2.65,7.79,6.24,.15,.39,.79,.87,1.16,.84,5.28-.51,9.14,4.28,14.43,3.78,2.21-.21,4.8-.69,5.39,2.72,.07,.42,1.09,1.07,1.56,.99,8.3-1.46,15.47,4.48,23.85,3.41,5.06-.65,10.62-1.41,14.96,3.13,.79,.83,2.84,.63,4.3,.63,26.31,.03,52.62,.02,78.92,.03,2.54,0,4.84-.15,6.73-2.36,1.49-1.74,3.85-1.65,6.06-1.62,3.83,.07,7.66,.14,11.49-.03,2.73-.12,5.41,.73,7.9-2.31,1.63-1.98,5.7-.44,8.66-.71,2.16-.19,4.91,.8,5.49-2.7,.06-.38,.7-1.02,.97-.97,5.55,.91,10.24-2.07,15.33-3.22,2.23-.5,4.37-2.25,5.73-2.49,4.16-.74,5.4-5.28,9.55-5.73,2.89-.31,3.32-4.06,5.32-5.9,1.19-1.09,1.71-2.94,2.93-3.96,1.63-1.35,4.3-1.99,4.65,.8,.7,5.6,2.38,11.61-1.86,16.62-2.04,2.41-4.38,4.42-7.46,6-3.02,1.55-5.82,3.72-9.18,4.83-5.1,1.68-9.05,6.28-15,5.87-1.11-.08-3.04,.04-3.25,.58-1.97,5.12-6.31,2.89-9.73,3.31-2.08,.26-4.38-.44-5.68,2.11-.27,.53-1.4,.75-2.17,.87-11.71,1.86-23.53,2.58-35.36,2.76-13.15,.2-26.31,.05-39.46,.05Z"/>
                <path class="cls-6" style="fill: #7a6852;" d="M729.8,980.83c-14.72,8.92-30.77,14.89-46.83,20.72-22.54,8.18-45.71,14.29-69.36,18.19-27.66,4.57-55.6,5.31-83.59,4.42-9.65-.31-19.31-.62-28.94-1.3-16.78-1.17-33.18-4.66-49.46-8.75-13.86-3.48-27.65-7.23-41.06-12.22-11.98-4.46-24.23-8.32-35.22-15.08-1.2-13.24-3.14-26.41-4.3-39.62-1.09-12.34-5.46-24.33-3.98-36.91,.19-1.63-.84-4.19,1.68-4.58,2-.31,2.34,2.01,2.99,3.47,7.44,16.65,14.93,33.29,22.22,50.01,1.67,3.84,4.77,5.86,8.02,7.87,2.4,1.49,5.08,2.57,7.32,4.26,5.51,4.14,11.63,5.39,18.34,4.72,1.65-.17,3.36-.22,4.99,0,10.18,1.45,17.15-1.31,23.11-11.02,7.8-12.7,21.13-19.87,34.71-25.89,27.1-12,55.5-13.6,84.55-11.28,15.96,1.28,31.21,5.34,45.62,11.73,15.63,6.94,29.56,16.63,38.13,32.25,1.61,2.93,3.89,4.25,7.28,4.21,8.66-.12,17.32-.2,25.98,.03,4.58,.12,7.87-2.3,11.3-4.59,4.65-3.1,10.14-5.3,12.64-10.85,5.46-12.09,11.02-24.15,16.11-36.4,1.63-3.92,4.35-6.91,6.63-10.59,1.62,4.13,1.89,8.47,.75,12.36-2.77,9.45-3.99,19.2-5.26,28.82-1.15,8.75-4.34,17.12-4.38,26.01Zm-357.72-63.89c-1.41,2.2-1.22,3.55-1.06,4.81,1.43,11.02,3.37,22,4.22,33.06,.71,9.31,3.94,18.25,3.59,27.64-.11,2.9,1.79,4.3,3.71,5.44,3.1,1.85,6.31,4.05,9.75,4.72,9.17,1.79,17.07,6.93,26.12,9.13,4.11,1,8.67,1.27,12.38,3.37,5.98,3.38,12.67,4.01,19.03,5.84,7.48,2.15,15.36,3,22.83,4.88,14.72,3.69,29.77,5.52,44.61,6.34,19.29,1.07,38.76,1.6,58.21-.83,14.42-1.8,28.84-3,43.18-5.8,8.08-1.58,16.16-3.54,24.35-4.8,7.23-1.11,14.08-4.24,21.09-6.37,9.94-3.02,19.89-5.91,29.55-9.74,7.33-2.91,14.76-5.64,21.81-9.14,5.18-2.56,11.6-3.71,12.37-11.89,1.4-14.88,3.8-29.66,7.85-44.11,.28-1.02,.74-2.32-1.29-3.08-2.48,5.71-4.82,11.47-7.45,17.09-5.54,11.85-8.53,25.63-22.91,30.97-.58,.22-1,.87-1.52,1.28-3.21,2.57-6.82,4.03-11,4.01-6.66-.03-13.33-.18-19.99,.03-7.36,.23-12.64-1.14-17.11-8.63-11.25-18.86-30.32-27.38-50.27-34.15-6.31-2.14-12.85-2.98-19.3-4.35-7.85-1.66-15.76-2.59-23.73-2.76-22.21-.47-43.87,2.23-64.74,10.57-7.25,2.9-14.26,6.1-20.75,10.29-9.34,6.03-17.02,13.83-22.59,23.54-1.7,2.95-4.01,5.32-7.39,5.2-13.03-.46-26.75,3.57-38.5-5.82-2.42-1.94-5.57-2.94-8.12-4.76-2.55-1.82-5.75-3.19-7.1-6.15-4.1-9.04-7.91-18.21-11.84-27.33-2.54-5.91-5.1-11.81-7.99-18.52Z"/>
                <path class="cls-4" style="fill: #413f3d;" d="M545.61,737.36c-13.66-2.12-25.41-8.13-34.78-18.37-3.07-3.35-6.33-5.48-10.61-6.87-13.33-4.31-25.73-10.26-33.61-22.67-2.88-4.54-1.69-9.67-1-14.52,.29-1.99,2.09-.94,3.04,.05,2.3,2.39,4.36,5.04,6.8,7.25,7.52,6.81,16.94,10.39,25.86,14.78,3.67,1.81,6.97,3.85,9.24,7.32,5.59,8.57,13.14,15.4,22.09,19.79,9.08,4.45,19.39,4.54,28.37-.54,9.62-5.43,17.66-13.05,23.16-22.91,1.22-2.18,3.01-3.39,5.33-4.19,12.67-4.4,24.88-9.55,33.63-20.44,.87-1.08,1.9-2.72,3.66-1.89,1.42,.67,.91,2.35,1.09,3.62,1.61,11.32-5.71,17.84-13.43,23.68-6.92,5.23-14.89,8.73-23.33,11-3.97,1.07-7.1,3.28-9.73,6.56-4.1,5.11-8.99,9.27-15.39,11.48-3.57,1.23-6.93,2.8-9.97,5.42-2.68,2.31-6.76,.65-10.4,1.44Z"/>
                <path class="cls-6" style="fill: #7a6852;" d="M512.12,744.2c-3.78,3.71-8.8,3.3-13.43,3.8-17.39,1.86-34.46,5.03-51.23,10.18-11,3.38-21.76,7.19-31.94,12.53-11.02,5.79-20.72,13.2-27.93,23.52-1.54,2.21-2.52,4.65-2.47,7.46,.07,4.5,0,8.99,.02,13.49,0,1.47-.29,3.3,1.35,3.99,1.73,.74,2.76-.9,3.63-2.01,5-6.32,10.91-11.54,17.71-15.91,13.01-8.37,27.14-14.02,41.89-18.37,21.43-6.32,43.3-9.72,65.59-11.29,11.28-.79,22.51-2.22,33.83-1.8,21.44,.79,42.75,2.73,63.9,6.52,20.2,3.62,39.72,9.44,58.53,17.58,10.99,4.75,20.2,12.06,28.54,20.55,1.41,1.44,2.64,4.04,5.24,2.89,2.22-.98,1.36-3.49,1.69-5.39,1.17-6.93-1.15-12.11-5.66-17.78-5.52-6.94-10.51-14.1-18.13-18.84-11.09-6.89-23.15-11.66-35.46-15.85-15.48-5.26-31.58-7.8-47.56-10.83-5.23-.99-10.69-.09-15.83-1.77-1.94-.63-4.51-.1-5.54-2.66,12.59-1.48,24.68,1.65,36.85,4.05,12.82,2.53,25.49,5.84,37.77,10.12,14.83,5.17,29.33,11.48,41.13,22.33,4.88,4.48,9.09,9.69,13.61,14.56,.97,1.04,1.32,2.29,1.32,3.66,.02,5.99,.08,11.99,.02,17.98-.03,2.86-1.05,5.23-4.06,6.21-3.1,1-4.65-1.05-6.03-3.2-7.71-11.96-19.51-18.47-31.82-24.56-8.52-4.22-17.69-6.57-26.53-9.73-6.52-2.33-13.69-3.61-20.6-5.17-10-2.25-20.3-2.33-30.2-5.32-6.5-1.96-13.55-.66-20.36-1.21-17.72-1.43-35.51-1.49-53.24,.39-.5,.05-.99,.14-1.49,.14-18.69,.05-36.84,4.19-54.85,8.3-19.8,4.52-38.82,11.7-55.47,23.87-5.27,3.85-9.7,8.58-13.25,14.1-1.24,1.92-2.56,4.3-5.4,3.55-2.55-.67-3.36-3.02-3.84-5.38-1.22-5.92-1.5-11.89-.49-17.85,2.02-11.92,11.02-18.46,19.8-25.03,13.58-10.16,29.29-16.25,45.25-20.99,11.28-3.35,22.94-5.87,34.63-8.06,10.17-1.91,20.18-3.46,30.5-2.78Z"/>
                <path class="cls-5" style="fill: #3c3c3b;" d="M372.08,916.94c2.9,6.71,5.45,12.61,7.99,18.52,3.93,9.12,7.74,18.29,11.84,27.33,1.34,2.96,4.55,4.34,7.1,6.15,2.54,1.81,5.69,2.82,8.12,4.76,11.75,9.39,25.47,5.36,38.5,5.82,3.38,.12,5.7-2.25,7.39-5.2,5.57-9.71,13.26-17.51,22.59-23.54,6.49-4.19,13.5-7.39,20.75-10.29,20.87-8.34,42.53-11.04,64.74-10.57,7.97,.17,15.88,1.1,23.73,2.76,6.46,1.37,12.99,2.2,19.3,4.35,19.94,6.77,39.01,15.29,50.27,34.15,4.47,7.49,9.75,8.87,17.11,8.63,6.66-.21,13.33-.06,19.99-.03,4.18,.02,7.78-1.44,11-4.01,.52-.42,.93-1.07,1.52-1.28,14.39-5.34,17.37-19.12,22.91-30.97,2.63-5.62,4.97-11.38,7.45-17.09,2.03,.76,1.58,2.06,1.29,3.08-4.05,14.45-6.45,29.23-7.85,44.11-.77,8.19-7.19,9.33-12.37,11.89-7.05,3.49-14.48,6.23-21.81,9.14-9.66,3.83-19.61,6.72-29.55,9.74-7.01,2.13-13.86,5.26-21.09,6.37-8.2,1.25-16.27,3.22-24.35,4.8-14.34,2.8-28.76,4-43.18,5.8-19.45,2.43-38.92,1.89-58.21,.83-14.84-.82-29.89-2.65-44.61-6.34-7.47-1.87-15.34-2.73-22.83-4.88-6.36-1.83-13.06-2.45-19.03-5.84-3.7-2.1-8.27-2.37-12.38-3.37-9.05-2.2-16.95-7.34-26.12-9.13-3.44-.67-6.65-2.87-9.75-4.72-1.92-1.15-3.82-2.54-3.71-5.44,.35-9.39-2.87-18.33-3.59-27.64-.85-11.06-2.79-22.04-4.22-33.06-.16-1.27-.36-2.61,1.06-4.81Z"/>
            </g>
        </g>
    </symbol>

    <symbol id="icon-headphones" viewBox="0 0 24 24">
        <path d="M21 12.424V11a9 9 0 0 0-18 0v1.424A5 5 0 0 0 5 22a2 2 0 0 0 2-2v-6a2 2 0 0 0-2-2v-1a7 7 0 0 1 14 0v1a2 2 0 0 0-2 2v6a2 2 0 0 0 2 2 5 5 0 0 0 2-9.576ZM5 20a3 3 0 0 1 0-6Zm14 0v-6a3 3 0 0 1 0 6Z"/>
    </symbol>

    <symbol id="icon-vr" viewBox="0 0 14 14">
        <path d="m 11.774283,11.780265 c -0.163428,0.08171 -0.326856,0.163428 -0.490284,0.217904 -0.02724,0 -0.05448,0.02724 -0.08171,0.02724 -0.08171,0.02724 -0.13619,0.02724 -0.217904,0.05448 -0.02724,0 -0.02724,0 -0.05448,0 -0.08171,0 -0.163428,0.02724 -0.27238,0.02724 l -0.190666,0 -1.6615182,0 -0.708188,-0.735426 2.5603722,0 c 0.381332,0 0.762664,-0.163428 1.007806,-0.463046 0.27238,-0.299618 0.381332,-0.653712 0.326856,-1.062282 l -0.190666,-1.63428 c -0.08171,-0.68095 -0.653712,-1.198472 -1.3619,-1.198472 l -6.9729283,0 c -0.68095,0 -1.280186,0.517522 -1.3619,1.198472 l -0.1906661,1.63428 c -0.054476,0.381332 0.081714,0.762664 0.3268561,1.062282 0.27238,0.299618 0.626474,0.463046 1.007806,0.463046 l 2.5603721,0 -0.6809501,0.708188 -1.525328,0 -0.326856,0 c -0.081714,0 -0.163428,0 -0.27238,-0.02724 0,0 0,0 0,0 -0.081714,0 -0.163428,-0.02724 -0.245142,-0.05448 C 1.6689886,11.753029 0.87908663,10.717985 1.0152766,9.546751 l 0.13619,-1.22571 0.054476,-0.40857 c 0,-0.08171 0.027238,-0.13619 0.027238,-0.217904 0.054476,-0.217904 0.108952,-0.40857 0.217904,-0.599236 0.108952,-0.163428 0.217904,-0.326856 0.381332,-0.490284 0.027238,-0.05448 0.081714,-0.08171 0.13619,-0.108952 0.027238,-0.02724 0.081714,-0.05448 0.1089521,-0.08171 0.027238,-0.02724 0.054476,-0.05448 0.108952,-0.08171 0.163428,-0.108952 0.354094,-0.217904 0.54476,-0.299618 l 0,0 c 0.108952,-0.02724 0.217904,-0.08171 0.354094,-0.08171 0.13619,-0.02724 0.27238,-0.02724 0.435808,-0.02724 l 2.1790401,0 0,0.13619 c 0,0.190666 0.163428,0.326856 0.354094,0.326856 l 1.961136,0 c 0.190666,0 0.326856,-0.13619 0.354094,-0.326856 l 0,-0.13619 2.1518022,0 c 0.326856,0 0.626474,0.08171 0.926092,0.190666 l 0,0 c 0.108952,0.05448 0.217904,0.108952 0.326856,0.163428 0.02724,0.02724 0.08171,0.05448 0.108952,0.08171 0,0 0,0 0,0 0.05448,0.02724 0.08171,0.05448 0.108952,0.108952 0.02724,0.02724 0.05448,0.02724 0.08171,0.05448 0.05448,0.02724 0.08171,0.08171 0.13619,0.13619 0.02724,0.02724 0.02724,0.02724 0.05448,0.05448 0.02724,0.02724 0.02724,0.05448 0.05448,0.05448 0.02724,0.05448 0.08171,0.08171 0.108952,0.13619 0.108952,0.163428 0.190666,0.299618 0.245142,0.490284 0.05448,0.163428 0.108952,0.354094 0.13619,0.54476 l 0.163428,1.443614 0.02724,0.163428 c 0,0 0,0.02724 0,0.02724 0,0.926092 -0.490284,1.77047 -1.22571,2.206278 z m -8.4982563,-1.08952 c -0.190666,0 -0.381332,-0.08171 -0.490284,-0.217904 -0.13619,-0.13619 -0.190666,-0.326856 -0.163428,-0.517522 l 0.190666,-1.63428 c 0.027238,-0.354094 0.299618,-0.599236 0.653712,-0.599236 l 7.0001663,0 c 0.354094,0 0.626474,0.245142 0.653712,0.599236 l 0.190666,1.63428 c 0.02724,0.190666 -0.02724,0.381332 -0.163428,0.517522 -0.13619,0.13619 -0.299618,0.217904 -0.490284,0.217904 l -7.3814983,0 z M 5.5367807,3.282009 5.5095427,2.818963 c -1.252948,0.245142 -2.233516,1.171234 -2.614848,2.342468 0.190666,-0.02724 0.381332,-0.05448 0.599236,-0.05448 l 0.571998,0 c 0.245142,-0.844378 0.762664,-1.49809 1.470852,-1.824946 z M 8.4512468,2.791725 8.4240088,3.227533 c 0.762664,0.299618 1.334662,0.980568 1.6342802,1.879422 l 0.40857,0 c 0.27238,0 0.517522,0.02724 0.762664,0.108952 C 10.820953,3.962959 9.7586708,3.009629 8.4512468,2.791725 Z m -2.31523,-0.898854 1.661518,0 -0.027238,0.626474 -0.027238,0.217904 0,0 -0.081714,2.369706 0,0 -0.027238,0.571998 -1.307424,0 -0.027238,-0.435808 z"/>
    </symbol>

    <symbol id="icon-gamepad" viewBox="0 0 512 512">
        <g>
            <g>
                <circle cx="385.217" cy="181.24" r="13.013"/>
            </g>
        </g>
        <g>
            <g>
                <circle cx="385.217" cy="228.226" r="13.013"/>
            </g>
        </g>
        <g>
            <g>
                <circle cx="408.71" cy="204.733" r="13.013"/>
            </g>
        </g>
        <g>
            <g>
                <circle cx="361.724" cy="204.733" r="13.013"/>
            </g>
        </g>
        <g>
            <g>
                <path d="M135.982,172.478h-16.656c-3.22,0-5.83,2.611-5.83,5.829v6.003c0.001,1.816,0.847,3.528,2.289,4.631l8.329,6.369    c2.09,1.599,4.992,1.599,7.082,0l8.329-6.369c1.442-1.103,2.288-2.815,2.288-4.631v-6.003    C141.813,175.087,139.202,172.478,135.982,172.478z"/>
            </g>
        </g>
        <g>
            <g>
                <path d="M139.525,223.417l-8.329-6.369c-2.09-1.599-4.992-1.599-7.082,0l-8.329,6.369c-1.442,1.103-2.288,2.815-2.288,4.631v6.003    c0,3.22,2.611,5.829,5.83,5.829h16.656c3.22,0,5.831-2.611,5.831-5.829v-6.003C141.813,226.233,140.968,224.52,139.525,223.417z"/>
            </g>
        </g>
        <g>
            <g>
                <path d="M155.527,192.02h-6.003c-1.816,0-3.528,0.846-4.631,2.288l-6.369,8.329c-1.599,2.09-1.599,4.992,0,7.082l6.369,8.329    c1.103,1.442,2.815,2.288,4.631,2.288h6.003c3.22,0,5.829-2.611,5.829-5.829v-16.656    C161.358,194.631,158.747,192.02,155.527,192.02z"/>
            </g>
        </g>
        <g>
            <g>
                <path d="M116.785,202.637l-6.369-8.329c-1.103-1.442-2.815-2.288-4.631-2.288h-6.003c-3.22,0-5.831,2.611-5.831,5.829v16.656    c0,3.22,2.611,5.83,5.831,5.83h6.003c1.816,0,3.528-0.846,4.631-2.288l6.369-8.329    C118.384,207.631,118.384,204.728,116.785,202.637z"/>
            </g>
        </g>
        <g>
            <g>
                <path d="M242.531,193.634h-42.332c-3.993,0-7.228,3.237-7.228,7.228v14.249c0,3.993,3.237,7.228,7.228,7.228h42.332    c3.993,0,7.228-3.237,7.228-7.228v-14.249C249.76,196.869,246.523,193.634,242.531,193.634z"/>
            </g>
        </g>
        <g>
            <g>
                <path d="M317.137,193.634h-42.332c-3.993,0-7.228,3.237-7.228,7.228v14.249c0,3.993,3.237,7.228,7.228,7.228h42.332    c3.992,0,7.228-3.237,7.228-7.228v-14.249C324.366,196.869,321.13,193.634,317.137,193.634z"/>
            </g>
        </g>
        <g>
            <g>
                <path d="M509.976,339.684l-39.021-158.733c-6.456-26.256-23.039-48.066-46.185-61.217c-2.256-19.02-18.481-33.82-38.097-33.82    h-40.641c-20.778,0-37.751,16.606-38.347,37.243H204.332c-0.596-20.637-17.569-37.243-38.348-37.243h-40.64    c-19.616,0-35.841,14.8-38.096,33.819c-23.146,13.152-39.73,34.962-46.185,61.218L2.044,339.684    c-4.447,18.092-1.583,36.832,8.064,52.77s24.924,27.164,43.016,31.612c30.182,7.418,60.737-6.241,76.084-31.229l21.922-35.695    c11.227,9.73,25.852,15.638,41.841,15.638c35.281,0,63.983-28.702,63.983-63.983c0-0.953-0.031-1.898-0.072-2.841h7.704    c-0.041,0.943-0.072,1.888-0.072,2.841c0,35.281,28.702,63.983,63.983,63.983c13.086,0,25.262-3.956,35.41-10.725l18.905,30.781    c15.222,24.787,45.671,38.706,76.085,31.23C496.241,414.883,519.155,377.031,509.976,339.684z M192.971,339.423    c-16.914,0-30.628-13.777-30.628-30.628c0-16.889,13.74-30.629,30.628-30.629c16.874,0,30.628,13.755,30.628,30.629    C223.599,325.683,209.859,339.423,192.971,339.423z M328.497,339.423c-16.888,0-30.628-13.74-30.628-30.628    c0-16.891,13.77-30.629,30.628-30.629c16.889,0,30.629,13.74,30.629,30.629C359.125,325.62,345.435,339.423,328.497,339.423z     M450.932,391.674c-15.81,3.888-31.722-3.305-39.698-16.295l-24.545-39.966c3.7-8.066,5.792-17.345,5.792-26.618    c0-35.281-28.702-63.984-63.984-63.984c-21.335,0-41.009,10.709-52.749,27.788H245.72c-11.639-16.928-31.265-27.788-52.749-27.788    c-35.281,0-63.983,28.703-63.983,63.984c0,5.775,0.809,11.631,2.277,16.954l-30.48,49.631    c-7.966,12.972-23.87,20.186-39.699,16.295c-9.44-2.32-17.41-8.178-22.445-16.493s-6.529-18.094-4.207-27.534l39.021-158.733    c4.816-19.595,18.231-35.424,36.804-43.428c6.115-2.636,10.077-8.657,10.077-15.316v-5.89c0-2.762,2.247-5.009,5.009-5.009h40.64    c2.762,0,5.009,2.247,5.009,5.009v15.556c0,9.21,7.467,16.678,16.677,16.678h136.675c9.21,0,16.678-7.467,16.678-16.678v-15.556    c0-2.762,2.247-5.009,5.009-5.009h40.641c2.762,0,5.009,2.247,5.009,5.009v5.892c0,6.659,3.961,12.68,10.077,15.316    c18.572,8.003,31.987,23.832,36.805,43.428l39.021,158.732C482.375,367.133,470.418,386.884,450.932,391.674z"/>
            </g>
        </g>
        <g>
        </g>
        <g>
        </g>
        <g>
        </g>
        <g>
        </g>
        <g>
        </g>
        <g>
        </g>
        <g>
        </g>
        <g>
        </g>
        <g>
        </g>
        <g>
        </g>
        <g>
        </g>
        <g>
        </g>
        <g>
        </g>
        <g>
        </g>
        <g>
        </g>
    </symbol>

    <symbol id="icon-mobile-gaming" viewBox="0 0 498 289.94">
        <g xmlns="http://www.w3.org/2000/svg" id="Layer_1-2">
            <path d="M0,236.48V53.45C0,38.75,6,25.39,15.7,15.7,25.37,6.02,38.74,0,53.45,0H444.54c14.7,0,28.07,6.02,37.76,15.7,9.68,9.69,15.7,23.05,15.7,37.76V236.48c0,14.7-6.02,28.07-15.7,37.76-9.69,9.68-23.05,15.7-37.76,15.7H53.45c-14.71,0-28.08-6.02-37.76-15.7-9.69-9.69-15.69-23.05-15.69-37.76H0Zm365.19-83.54c0-5.23,2.12-9.96,5.55-13.4,3.43-3.42,8.17-5.55,13.4-5.55s9.98,2.12,13.41,5.55c3.42,3.43,5.55,8.17,5.55,13.4s-2.12,9.98-5.55,13.41c-3.43,3.42-8.17,5.55-13.41,5.55s-9.96-2.12-13.4-5.55c-3.42-3.43-5.55-8.17-5.55-13.41Zm9.58-9.36c-2.39,2.39-3.88,5.71-3.88,9.36s1.49,6.98,3.88,9.38c2.39,2.39,5.71,3.88,9.36,3.88s6.98-1.49,9.38-3.88c2.39-2.39,3.88-5.71,3.88-9.38s-1.49-6.97-3.88-9.36-5.71-3.88-9.38-3.88-6.97,1.49-9.36,3.88Zm-25.86,25.64c5.24,0,9.98,2.12,13.4,5.55,3.43,3.43,5.55,8.17,5.55,13.41s-2.12,9.96-5.55,13.4c-3.42,3.43-8.16,5.55-13.4,5.55s-9.96-2.12-13.4-5.55c-3.42-3.43-5.55-8.17-5.55-13.4s2.12-9.98,5.55-13.41c3.43-3.42,8.17-5.55,13.4-5.55Zm9.38,9.58c-2.39-2.39-5.71-3.88-9.38-3.88s-6.97,1.49-9.36,3.88-3.88,5.71-3.88,9.38,1.49,6.97,3.88,9.36c2.39,2.41,5.71,3.88,9.36,3.88s6.98-1.48,9.38-3.88c2.39-2.39,3.88-5.71,3.88-9.36s-1.49-6.98-3.88-9.38Zm-63.55-25.86c0-5.23,2.12-9.96,5.55-13.4,3.42-3.42,8.17-5.55,13.4-5.55s9.98,2.12,13.4,5.55c3.43,3.43,5.55,8.17,5.55,13.4s-2.12,9.98-5.55,13.41c-3.42,3.42-8.17,5.55-13.4,5.55s-9.98-2.12-13.4-5.55c-3.43-3.43-5.55-8.17-5.55-13.41Zm9.58-9.36c-2.39,2.39-3.87,5.71-3.87,9.36s1.48,6.98,3.88,9.38c2.39,2.39,5.7,3.88,9.36,3.88s6.97-1.49,9.38-3.88c2.39-2.39,3.88-5.71,3.88-9.38s-1.49-6.97-3.88-9.36-5.71-3.88-9.38-3.88-6.98,1.49-9.38,3.88h0Zm44.59-44.81c5.24,0,9.98,2.12,13.4,5.55,3.43,3.43,5.55,8.17,5.55,13.4s-2.12,9.98-5.55,13.41c-3.42,3.42-8.16,5.55-13.4,5.55s-9.96-2.12-13.4-5.55c-3.42-3.43-5.55-8.17-5.55-13.41s2.12-9.96,5.55-13.4c3.43-3.43,8.17-5.55,13.4-5.55h0Zm9.38,9.59c-2.39-2.41-5.71-3.88-9.38-3.88s-6.97,1.49-9.36,3.88-3.88,5.71-3.88,9.36,1.49,6.98,3.88,9.37c2.39,2.39,5.71,3.88,9.36,3.88s6.98-1.49,9.38-3.88c2.39-2.39,3.88-5.71,3.88-9.38s-1.49-6.97-3.88-9.36h0Zm-91.1,58.31v-28.39h-34.39v28.39h34.39Zm7.6-32.19v35.98c0,2.1-1.71,3.8-3.8,3.8h-41.99c-2.09,0-3.8-1.71-3.8-3.8v-35.98c0-2.1,1.71-3.8,3.8-3.8h41.99c2.1,0,3.8,1.71,3.8,3.8Zm-95.93,73.77h24.59v-30.59h-24.59v30.59Zm30.29,11.4h-35.98c-3.15,0-5.7-2.55-5.7-5.7v-41.99c0-3.15,2.55-5.7,5.7-5.7h35.98c3.15,0,5.71,2.55,5.71,5.7v41.99c0,3.15-2.56,5.7-5.71,5.7Zm-101.62-49.19v-35.98c0-2.1,1.7-3.8,3.8-3.8h41.99c2.1,0,3.8,1.71,3.8,3.8v35.98c0,2.1-1.71,3.8-3.8,3.8h-41.99c-2.1,0-3.8-1.71-3.8-3.8Zm7.6-32.19v28.39h34.39v-28.39h-34.39Zm58.04-52.98h35.98c3.15,0,5.71,2.55,5.71,5.7v41.99c0,3.15-2.56,5.7-5.71,5.7h-35.98c-3.15,0-5.7-2.55-5.7-5.7v-41.99c0-3.15,2.55-5.7,5.7-5.7Zm30.29,11.4h-24.59v30.58h24.59v-30.58ZM70.7,253.94V36.03c0-2.1,1.7-3.8,3.8-3.8H423.49c2.1,0,3.8,1.71,3.8,3.8V253.94c0,2.09-1.71,3.8-3.8,3.8H74.5c-2.1,0-3.8-1.71-3.8-3.8h0Zm7.6-214.11V250.13H419.68V39.83H78.3Zm359.75,105.15c0-5.41,2.2-10.31,5.74-13.87,3.55-3.54,8.45-5.74,13.87-5.74s10.32,2.2,13.87,5.74c3.55,3.55,5.74,8.45,5.74,13.87s-2.19,10.3-5.74,13.86h0c-3.54,3.57-8.45,5.77-13.87,5.77s-10.31-2.2-13.87-5.75c-3.54-3.55-5.74-8.45-5.74-13.87h0Zm11.12-8.49c-2.18,2.16-3.52,5.17-3.52,8.49s1.34,6.32,3.52,8.5c2.16,2.16,5.17,3.51,8.49,3.51s6.32-1.34,8.5-3.51c2.16-2.16,3.51-5.17,3.51-8.5s-1.34-6.32-3.51-8.5c-2.18-2.16-5.18-3.51-8.5-3.51s-6.32,1.34-8.49,3.52h0ZM46.3,179.21c0,2.1-1.71,3.8-3.8,3.8s-3.8-1.71-3.8-3.8v-1.34c0-2.1,1.7-3.8,3.8-3.8s3.8,1.7,3.8,3.8v1.34Zm0-25.9c0,2.1-1.71,3.8-3.8,3.8s-3.8-1.7-3.8-3.8v-42.57c0-2.1,1.7-3.8,3.8-3.8s3.8,1.71,3.8,3.8v42.57ZM11.41,53.47V236.5c0,11.55,4.73,22.07,12.36,29.68,7.62,7.62,18.13,12.36,29.69,12.36H444.55c11.55,0,22.06-4.73,29.68-12.36,7.62-7.61,12.36-18.13,12.36-29.68V53.47c0-11.55-4.73-22.06-12.36-29.68-7.62-7.62-18.13-12.36-29.68-12.36H53.46c-11.56,0-22.07,4.73-29.69,12.36s-12.36,18.13-12.36,29.68Z"/>
        </g>
    </symbol>

    <symbol id="icon-console" viewBox="0 0 470 470">
        <g>
            <g>
                <g>
                    <path d="M338.125,142.5c4.143,0,7.5-3.358,7.5-7.5v-30c0-4.142-3.357-7.5-7.5-7.5s-7.5,3.358-7.5,7.5v30     C330.625,139.142,333.983,142.5,338.125,142.5z"/>
                    <path d="M330.625,195c0,4.142,3.357,7.5,7.5,7.5s7.5-3.358,7.5-7.5v-30c0-4.142-3.357-7.5-7.5-7.5s-7.5,3.358-7.5,7.5V195z"/>
                    <path d="M330.625,315c0,4.142,3.357,7.5,7.5,7.5s7.5-3.358,7.5-7.5v-30c0-4.142-3.357-7.5-7.5-7.5s-7.5,3.358-7.5,7.5V315z"/>
                    <path d="M469.523,459.867L451.25,411.14V7.5c0-4.142-3.357-7.5-7.5-7.5h-75c-4.143,0-7.5,3.358-7.5,7.5V20h-45V7.5     c0-4.142-3.357-7.5-7.5-7.5h-75c-4.143,0-7.5,3.358-7.5,7.5v101.788c0,4.142,3.357,7.5,7.5,7.5s7.5-3.358,7.5-7.5V15h60v367.5     c0,4.142,3.357,7.5,7.5,7.5s7.5-3.358,7.5-7.5V35h45v347.5c0,4.142,3.357,7.5,7.5,7.5s7.5-3.358,7.5-7.5V15h60v390h-195v-61.485     c1.431,0.172,2.875,0.287,4.338,0.287c20.343,0,36.894-16.55,36.894-36.894c0-1.746-0.127-3.516-0.376-5.262L263.33,170.427     c-3.607-25.215-25.56-44.229-51.063-44.229c-17.103,0-33.046,8.523-42.607,22.513h-56.835     c-9.562-13.989-25.505-22.513-42.607-22.513c-25.503,0-47.456,19.014-51.064,44.229L0.376,301.647     C0.127,303.393,0,305.163,0,306.908c0,20.343,16.551,36.894,36.894,36.894c15.225,0,29.087-9.562,34.496-23.795l17.229-45.361     h105.232l17.241,45.362c2.936,7.726,8.374,14.056,15.157,18.247v72.885l-18.272,48.727c-0.863,2.303-0.543,4.883,0.858,6.905     c1.4,2.022,3.704,3.228,6.164,3.228h247.5c2.46,0,4.764-1.206,6.164-3.228C470.066,464.75,470.386,462.17,469.523,459.867z      M225.113,314.678l-19.078-50.197c-1.106-2.911-3.896-4.835-7.011-4.835H83.445c-3.114,0-5.905,1.925-7.012,4.837L57.367,314.68     c-3.21,8.447-11.438,14.123-20.474,14.123C24.821,328.802,15,318.98,15,306.908c0-1.037,0.076-2.093,0.226-3.137l13.621-95.195     c9.414,12.617,24.453,20.802,41.369,20.802c24.669,0,45.971-17.555,50.65-41.741c0.787-4.067-1.872-8.001-5.938-8.788     c-4.074-0.788-8.002,1.873-8.788,5.938c-3.317,17.146-18.426,29.591-35.924,29.591c-20.176,0-36.59-16.415-36.59-36.59     c0-0.523-0.054-1.033-0.156-1.526l0.531-3.711c2.558-17.875,18.127-31.354,36.215-31.354c13.198,0,25.425,7.162,31.909,18.689     c1.328,2.362,3.827,3.823,6.537,3.823h65.157c2.71,0,5.209-1.461,6.537-3.823c6.484-11.528,18.711-18.689,31.909-18.689     c18.088,0,33.657,13.479,36.214,31.354l0.531,3.713c-0.101,0.492-0.155,1.001-0.155,1.523c0,20.176-16.414,36.59-36.59,36.59     c-17.498,0-32.606-12.445-35.924-29.591c-0.786-4.065-4.711-6.726-8.788-5.938c-4.066,0.787-6.726,4.721-5.938,8.788     c4.68,24.187,25.981,41.741,50.65,41.741c16.916,0,31.955-8.185,41.369-20.801l13.621,95.194c0.149,1.044,0.226,2.1,0.226,3.137     c0,12.072-9.821,21.894-21.894,21.894C236.551,328.801,228.323,323.126,225.113,314.678z M225.822,455l13.125-35h199.605     l13.125,35H225.822z"/>
                    <path d="M84.307,170.289h-6.591v-6.591c0-4.142-3.357-7.5-7.5-7.5s-7.5,3.358-7.5,7.5v6.591h-6.59c-4.143,0-7.5,3.358-7.5,7.5     c0,4.142,3.357,7.5,7.5,7.5h6.59v6.59c0,4.142,3.357,7.5,7.5,7.5s7.5-3.358,7.5-7.5v-6.59h6.591c4.143,0,7.5-3.358,7.5-7.5     C91.807,173.647,88.449,170.289,84.307,170.289z"/>
                </g>
            </g>
        </g>
        <g>
        </g>
        <g>
        </g>
        <g>
        </g>
        <g>
        </g>
        <g>
        </g>
        <g>
        </g>
        <g>
        </g>
        <g>
        </g>
        <g>
        </g>
        <g>
        </g>
        <g>
        </g>
        <g>
        </g>
        <g>
        </g>
        <g>
        </g>
        <g>
        </g>
    </symbol>

    <symbol id="icon-coding" viewBox="0 0 239.402 239.402">
        <g>
            <path d="M218.855,9.257H20.555C9.221,9.257,0,18.474,0,29.803v18.754V161.65v18.753c0,11.332,9.221,20.552,20.555,20.552h65.072   v14.19H60.369c-4.143,0-7.5,3.358-7.5,7.5c0,4.143,3.357,7.5,7.5,7.5h32.758h53.146h32.76c4.143,0,7.5-3.357,7.5-7.5   c0-4.142-3.357-7.5-7.5-7.5h-25.26v-14.19h65.082c11.33,0,20.547-9.22,20.547-20.552V161.65V48.557V29.803   C239.402,18.474,230.186,9.257,218.855,9.257z M20.555,24.257h198.301c3.059,0,5.547,2.488,5.547,5.546v11.254H15V29.803   C15,26.745,17.492,24.257,20.555,24.257z M224.402,154.15H15V56.057h209.402V154.15z M138.773,215.145h-38.146v-14.19h38.146   V215.145z M218.855,185.955h-72.582H93.127H20.555c-3.063,0-5.555-2.49-5.555-5.552V169.15h209.402v11.253   C224.402,183.465,221.914,185.955,218.855,185.955z"/>
            <path d="M98.492,133.769c1.919,0,3.839-0.732,5.303-2.196l42.338-42.332c2.93-2.929,2.93-7.678,0.001-10.607   c-2.929-2.93-7.678-2.929-10.606-0.001l-42.338,42.332c-2.93,2.929-2.93,7.678-0.001,10.606   C94.653,133.036,96.572,133.769,98.492,133.769z"/>
            <path d="M72.261,131.571c1.465,1.465,3.384,2.197,5.304,2.197c1.919,0,3.839-0.732,5.303-2.196c2.93-2.929,2.93-7.678,0.001-10.606   l-15.535-15.537l15.625-15.624c2.929-2.93,2.929-7.678,0-10.607c-2.93-2.928-7.678-2.928-10.607,0l-20.928,20.928   c-2.929,2.93-2.929,7.678,0,10.606L72.261,131.571z"/>
            <path d="M156.454,131.571c1.465,1.465,3.384,2.197,5.304,2.197c1.919,0,3.839-0.732,5.303-2.196l20.928-20.927   c1.407-1.407,2.197-3.314,2.197-5.304c0-1.989-0.79-3.896-2.197-5.304l-20.842-20.841c-2.929-2.929-7.678-2.929-10.606,0.001   c-2.929,2.929-2.929,7.678,0.001,10.606l15.538,15.537l-15.624,15.623C153.525,123.894,153.525,128.643,156.454,131.571z"/>
        </g>
    </symbol>


    <!-- Social Icons -->
    <symbol id="icon-Facebook" viewBox="0 0 34.499 34.499">
        <g>
            <path d="M28.018,0H6.483C2.902,0,0,2.902,0,6.483v21.533c0,3.582,2.902,6.483,6.483,6.483h21.533c3.582,0,6.483-2.901,6.483-6.483   V6.483C34.5,2.902,31.598,0,28.018,0z M28.992,8.088c-0.51-0.158-1.139-0.275-1.924-0.275c-1.963,0-2.785,1.53-2.785,3.414v0.98   h3.846v4.395h-3.807v14.794h-6.004V16.603h-2.511v-4.395h2.511v-0.746c0-2.314,0.707-4.867,2.434-6.435   c1.49-1.413,3.57-1.923,5.297-1.923c1.334,0,2.354,0.158,3.18,0.393L28.992,8.088z"/>
        </g>
    </symbol>

    <symbol id="icon-Twitter" viewBox="0 0 33.88 33.88">
        <path xmlns="http://www.w3.org/2000/svg" d="M30.414,10.031c0.014,0.297,0.021,0.595,0.021,0.897c0,9.187-6.992,19.779-19.779,19.779c-3.928,0-7.58-1.149-10.657-3.123   c0.546,0.063,1.099,0.095,1.658,0.095c3.26,0,6.254-1.107,8.632-2.974c-3.039-0.058-5.607-2.065-6.491-4.828   c0.424,0.082,0.858,0.125,1.308,0.125c0.635,0,1.248-0.084,1.83-0.244c-3.177-0.639-5.576-3.448-5.576-6.815   c0-0.029,0-0.058,0-0.087c0.939,0.521,2.01,0.833,3.15,0.869C2.646,12.48,1.419,10.35,1.419,7.938c0-1.274,0.343-2.467,0.94-3.495   c3.427,4.206,8.552,6.973,14.327,7.263c-0.117-0.509-0.18-1.038-0.18-1.584c0-3.838,3.112-6.949,6.953-6.949   c1.998,0,3.805,0.844,5.07,2.192c1.582-0.311,3.072-0.89,4.416-1.686c-0.521,1.624-1.621,2.986-3.057,3.844   c1.406-0.166,2.746-0.54,3.991-1.092C32.949,7.826,31.771,9.05,30.414,10.031z"/>
    </symbol>

    <symbol id="icon-Instagram" viewBox="0 0 169.063 169.063">
        <g>
            <path d="M122.406,0H46.654C20.929,0,0,20.93,0,46.655v75.752c0,25.726,20.929,46.655,46.654,46.655h75.752   c25.727,0,46.656-20.93,46.656-46.655V46.655C169.063,20.93,148.133,0,122.406,0z M154.063,122.407   c0,17.455-14.201,31.655-31.656,31.655H46.654C29.2,154.063,15,139.862,15,122.407V46.655C15,29.201,29.2,15,46.654,15h75.752   c17.455,0,31.656,14.201,31.656,31.655V122.407z"/>
            <path d="M84.531,40.97c-24.021,0-43.563,19.542-43.563,43.563c0,24.02,19.542,43.561,43.563,43.561s43.563-19.541,43.563-43.561   C128.094,60.512,108.552,40.97,84.531,40.97z M84.531,113.093c-15.749,0-28.563-12.812-28.563-28.561   c0-15.75,12.813-28.563,28.563-28.563s28.563,12.813,28.563,28.563C113.094,100.281,100.28,113.093,84.531,113.093z"/>
            <path d="M129.921,28.251c-2.89,0-5.729,1.17-7.77,3.22c-2.051,2.04-3.23,4.88-3.23,7.78c0,2.891,1.18,5.73,3.23,7.78   c2.04,2.04,4.88,3.22,7.77,3.22c2.9,0,5.73-1.18,7.78-3.22c2.05-2.05,3.22-4.89,3.22-7.78c0-2.9-1.17-5.74-3.22-7.78   C135.661,29.421,132.821,28.251,129.921,28.251z"/>
        </g>
    </symbol>

    <symbol id="icon-Youtube" viewBox="0 0 209.673 209.673">
        <g>
            <path d="M173.075,29.203H36.599C16.418,29.203,0,45.626,0,65.812v78.05c0,20.186,16.418,36.608,36.599,36.608h136.477   c20.18,0,36.598-16.422,36.598-36.608v-78.05C209.673,45.626,193.255,29.203,173.075,29.203z M194.673,143.861   c0,11.915-9.689,21.608-21.598,21.608H36.599c-11.91,0-21.599-9.693-21.599-21.608v-78.05c0-11.915,9.689-21.608,21.599-21.608   h136.477c11.909,0,21.598,9.693,21.598,21.608V143.861z"/>
            <path d="M145.095,98.57L89.499,61.92c-2.303-1.519-5.254-1.649-7.684-0.342c-2.429,1.308-3.944,3.845-3.944,6.604v73.309   c0,2.759,1.515,5.295,3.944,6.604c1.113,0.6,2.336,0.896,3.555,0.896c1.442,0,2.881-0.415,4.129-1.239l55.596-36.659   c2.105-1.388,3.372-3.74,3.372-6.262C148.467,102.31,147.2,99.958,145.095,98.57z M92.871,127.562V82.109l34.471,22.723   L92.871,127.562z"/>
        </g>
    </symbol>

    <symbol id="icon-Tiktok" viewBox="0 0 32 32">
        <path xmlns="http://www.w3.org/2000/svg" d="M16.708 0.027c1.745-0.027 3.48-0.011 5.213-0.027 0.105 2.041 0.839 4.12 2.333 5.563 1.491 1.479 3.6 2.156 5.652 2.385v5.369c-1.923-0.063-3.855-0.463-5.6-1.291-0.76-0.344-1.468-0.787-2.161-1.24-0.009 3.896 0.016 7.787-0.025 11.667-0.104 1.864-0.719 3.719-1.803 5.255-1.744 2.557-4.771 4.224-7.88 4.276-1.907 0.109-3.812-0.411-5.437-1.369-2.693-1.588-4.588-4.495-4.864-7.615-0.032-0.667-0.043-1.333-0.016-1.984 0.24-2.537 1.495-4.964 3.443-6.615 2.208-1.923 5.301-2.839 8.197-2.297 0.027 1.975-0.052 3.948-0.052 5.923-1.323-0.428-2.869-0.308-4.025 0.495-0.844 0.547-1.485 1.385-1.819 2.333-0.276 0.676-0.197 1.427-0.181 2.145 0.317 2.188 2.421 4.027 4.667 3.828 1.489-0.016 2.916-0.88 3.692-2.145 0.251-0.443 0.532-0.896 0.547-1.417 0.131-2.385 0.079-4.76 0.095-7.145 0.011-5.375-0.016-10.735 0.025-16.093z"/>
    </symbol>

    <symbol id="icon-Twitch" viewBox="0 0 32 32">
        <path xmlns="http://www.w3.org/2000/svg" d="M2.787 0l-2.089 5.568v22.255h7.652v4.177h4.177l4.167-4.177h6.26l8.349-8.344v-19.479zM5.568 2.781h22.953v15.301l-4.871 4.871h-7.651l-4.172 4.172v-4.172h-6.26zM13.219 16.697h2.781v-8.348h-2.781zM20.864 16.697h2.781v-8.348h-2.781z"/>
    </symbol>

    <symbol id="icon-Itch" viewBox="0 0 32 32">
        <path xmlns="http://www.w3.org/2000/svg" d="M 16 5 C 12.748 5 8.3121094 5.0508594 7.4121094 5.1308594 C 6.4021094 5.7368594 4.4028125 8.0309531 4.3828125 8.6269531 L 4.3828125 9.6269531 C 4.3828125 10.889953 5.5657188 12 6.6367188 12 C 7.9197187 12 8.9902344 10.929969 8.9902344 9.6679688 C 8.9902344 10.929969 10.0305 12 11.3125 12 C 12.6055 12 13.605469 10.930969 13.605469 9.6679688 C 13.605469 10.929969 14.695281 12 15.988281 12 L 16.009766 12 C 17.302766 12 18.392578 10.930969 18.392578 9.6679688 C 18.392578 10.929969 19.402547 12 20.685547 12 C 21.968547 12 23.009766 10.930969 23.009766 9.6679688 C 23.009766 10.929969 24.080281 12 25.363281 12 C 26.434281 12 27.615234 10.889953 27.615234 9.6269531 L 27.615234 8.6269531 C 27.595234 8.0309531 25.595938 5.7368594 24.585938 5.1308594 C 21.443938 5.0198594 19.252 5 16 5 z M 13.550781 11.742188 C 12.497781 13.552188 9.8523125 13.573906 8.8203125 11.753906 C 8.1903125 12.845906 6.7642969 13.267547 6.1542969 13.060547 C 5.9762969 14.959547 5.8534844 24.70875 7.1464844 26.34375 C 10.943484 27.22875 21.164516 27.20975 24.853516 26.34375 C 26.348516 24.81975 26.013703 14.821547 25.845703 13.060547 C 25.235703 13.267547 23.809453 12.845906 23.189453 11.753906 C 22.146453 13.573906 19.501219 13.552188 18.449219 11.742188 C 18.124219 12.332187 17.367 13.109375 16 13.109375 C 14.997 13.148375 14.051781 12.607187 13.550781 11.742188 z M 11.419922 14 C 12.219922 14 12.950078 14.000469 13.830078 14.980469 C 15.280078 14.830469 16.719922 14.830469 18.169922 14.980469 C 19.059922 14.010469 19.780078 14.009766 20.580078 14.009766 C 23.160078 14.009766 23.780937 17.819609 24.710938 21.099609 C 25.550938 24.149609 24.429062 24.230469 23.039062 24.230469 C 20.969062 24.150469 19.820313 22.650625 19.820312 21.140625 C 17.890313 21.460625 14.809688 21.580625 12.179688 21.140625 C 12.179688 22.650625 11.030938 24.150469 8.9609375 24.230469 C 7.5709375 24.230469 6.4490625 24.149609 7.2890625 21.099609 C 8.2190625 17.799609 8.8399219 14.009766 11.419922 14.009766 L 11.419922 14 z M 16 16.876953 C 16 16.876953 14.306 18.439375 14 18.984375 L 15.107422 18.943359 L 15.107422 19.910156 C 15.107422 19.968156 15.926 19.917969 16 19.917969 C 16.447 19.934969 16.892578 19.951156 16.892578 19.910156 L 16.892578 18.943359 L 18 18.984375 C 17.694 18.438375 16 16.876953 16 16.876953 z"/>
    </symbol>


    <!-- Gaming Logo Icons -->
    <symbol id="icon-Nintendo" viewBox="0 0 24 24">
        <g xmlns="http://www.w3.org/2000/svg">
            <path fill="none" d="M0 0h24v24H0z"/>
            <path fill-rule="nonzero" d="M12 3v18H7.6A4.6 4.6 0 0 1 3 16.4V7.6A4.6 4.6 0 0 1 7.6 3H12zm-2 2H7.6A2.6 2.6 0 0 0 5 7.6v8.8A2.6 2.6 0 0 0 7.6 19H10V5zm-2.5 5a1.5 1.5 0 1 1 0-3 1.5 1.5 0 0 1 0 3zM14 3h2.4A4.6 4.6 0 0 1 21 7.6v8.8a4.6 4.6 0 0 1-4.6 4.6H14V3zm3 11.7a1.8 1.8 0 1 0 0-3.6 1.8 1.8 0 0 0 0 3.6z"/>
        </g>
    </symbol>

    <symbol id="icon-Playstation" viewBox="0 0 106.726 106.726">
        <g xmlns="http://www.w3.org/2000/svg">
            <g>
                <path d="M11.703,67.563l-3.6,1.4c-5.4,2.3-8.2,4.7-8.1,6.8c0.3,3.1,3.8,5.4,10.2,7.1    c8.3,2.2,16.7,2.7,25.4,1.4v-8.7l0,0l-6.9,2.6c-7.2,2.5-10.9,0.4-10.9,0.4c-1.1-0.7-1.6-2.4,1.4-3.5l3.8-1.4l12.6-4.5v-10.1    l-3.2,1.1L11.703,67.563z"/>
                <path d="M64.303,32.463v25.9c5.4,2.6,10.2,2.8,13.8,0.1c3.7-2.6,5.7-7.1,5.7-13.9c0-7.1-1.4-12.5-4.5-16.1    c-2.8-3.8-7.8-7-15.2-9.5c-9.2-3-17-5.6-23.2-6.9v77.5l16.7,5.1v-64.4C57.503,26.363,64.303,26.663,64.303,32.463z"/>
                <path d="M106.703,72.463c-0.1-2.7-3.3-4.8-9-6.7c-6.4-2.1-11.9-3.1-17.9-2.9c-5.5,0.1-12.1,1.9-18,3.8v9.9    l16.2-5.7c0,0,4.9-1.8,9.1-0.7c3.2,0.8,3,2.6-0.2,3.7l-3.7,1.5l-21.4,7.7v10.1l10-3.6l24-8.5l2.8-1.3    C104.403,77.663,107.003,75.363,106.703,72.463z"/>
            </g>
        </g>
    </symbol>

    <symbol id="icon-Xbox" viewBox="0 0 24 24">
        <path d="m24 12c0-.001 0-.001 0-.002 0-3.618-1.606-6.861-4.144-9.054l-.015-.013c-1.91 1.023-3.548 2.261-4.967 3.713l-.004.004c.044.046.087.085.131.132 3.719 4.012 7.106 9.73 6.546 12.471 1.53-1.985 2.452-4.508 2.452-7.246 0-.002 0-.004 0-.006z"/><path d="m12.591 3.955c1.68-1.104 3.699-1.833 5.872-2.022l.048-.003c-1.837-1.21-4.09-1.929-6.511-1.929-2.171 0-4.207.579-5.962 1.591l.058-.031c.658.567 2.837.781 5.484 2.4.143.089.316.142.502.142.189 0 .365-.055.513-.149l-.004.002z"/><path d="m9.166 6.778c.046-.049.093-.09.138-.138-1.17-1.134-2.446-2.174-3.806-3.1l-.099-.064c-.302-.221-.681-.354-1.091-.354-.146 0-.288.017-.425.049l.013-.002c-2.398 2.198-3.896 5.344-3.896 8.84 0 2.909 1.037 5.576 2.762 7.651l-.016-.02c-1.031-2.547 2.477-8.672 6.419-12.862z"/><path d="m12.084 9.198c-3.962 3.503-9.477 8.73-8.632 11.218 2.174 2.213 5.198 3.584 8.542 3.584 3.493 0 6.637-1.496 8.826-3.883l.008-.009c.486-2.618-4.755-7.337-8.744-10.91z"/>
    </symbol>

    <symbol id="icon-Windows" viewBox="0 0 305 305">
        <g xmlns="http://www.w3.org/2000/svg" id="XMLID_108_">
            <path id="XMLID_109_" d="M139.999,25.775v116.724c0,1.381,1.119,2.5,2.5,2.5H302.46c1.381,0,2.5-1.119,2.5-2.5V2.5   c0-0.726-0.315-1.416-0.864-1.891c-0.548-0.475-1.275-0.687-1.996-0.583L142.139,23.301   C140.91,23.48,139.999,24.534,139.999,25.775z"/>
            <path id="XMLID_110_" d="M122.501,279.948c0.601,0,1.186-0.216,1.644-0.616c0.544-0.475,0.856-1.162,0.856-1.884V162.5   c0-1.381-1.119-2.5-2.5-2.5H2.592c-0.663,0-1.299,0.263-1.768,0.732c-0.469,0.469-0.732,1.105-0.732,1.768l0.006,98.515   c0,1.25,0.923,2.307,2.16,2.477l119.903,16.434C122.274,279.94,122.388,279.948,122.501,279.948z"/>
            <path id="XMLID_138_" d="M2.609,144.999h119.892c1.381,0,2.5-1.119,2.5-2.5V28.681c0-0.722-0.312-1.408-0.855-1.883   c-0.543-0.475-1.261-0.693-1.981-0.594L2.164,42.5C0.923,42.669-0.001,43.728,0,44.98l0.109,97.521   C0.111,143.881,1.23,144.999,2.609,144.999z"/>
            <path id="XMLID_169_" d="M302.46,305c0.599,0,1.182-0.215,1.64-0.613c0.546-0.475,0.86-1.163,0.86-1.887l0.04-140   c0-0.663-0.263-1.299-0.732-1.768c-0.469-0.469-1.105-0.732-1.768-0.732H142.499c-1.381,0-2.5,1.119-2.5,2.5v117.496   c0,1.246,0.918,2.302,2.151,2.476l159.961,22.504C302.228,304.992,302.344,305,302.46,305z"/>
        </g>
    </symbol>

    <symbol id="icon-Steam" viewBox="0 0 32 32">
        <path xmlns="http://www.w3.org/2000/svg" d="M15.974 0c-8.401 0-15.292 6.479-15.943 14.714l8.573 3.547c0.729-0.495 1.604-0.786 2.552-0.786 0.083 0 0.167 0.005 0.25 0.005l3.813-5.521v-0.078c0-3.328 2.703-6.031 6.031-6.031s6.036 2.708 6.036 6.036c0 3.328-2.708 6.031-6.036 6.031h-0.135l-5.438 3.88c0 0.073 0.005 0.141 0.005 0.214 0 2.5-2.021 4.526-4.521 4.526-2.177 0-4.021-1.563-4.443-3.635l-6.135-2.542c1.901 6.719 8.063 11.641 15.391 11.641 8.833 0 15.995-7.161 15.995-16s-7.161-16-15.995-16zM10.052 24.281l-1.964-0.813c0.349 0.724 0.953 1.328 1.755 1.667 1.729 0.719 3.724-0.104 4.443-1.833 0.349-0.844 0.349-1.76 0.005-2.599-0.344-0.844-1-1.495-1.839-1.844-0.828-0.349-1.719-0.333-2.5-0.042l2.026 0.839c1.276 0.536 1.88 2 1.349 3.276s-2 1.88-3.276 1.349zM25.271 11.875c0-2.214-1.802-4.021-4.016-4.021-2.224 0-4.021 1.807-4.021 4.021 0 2.219 1.797 4.021 4.021 4.021 2.214 0 4.016-1.802 4.016-4.021zM18.245 11.87c0-1.672 1.349-3.021 3.016-3.021s3.026 1.349 3.026 3.021c0 1.667-1.359 3.021-3.026 3.021s-3.016-1.354-3.016-3.021z"/>
    </symbol>

    <symbol id="icon-Android" viewBox="0 0 553.048 553.048">
        <g xmlns="http://www.w3.org/2000/svg">
            <g>
                <path d="M76.774,179.141c-9.529,0-17.614,3.323-24.26,9.969c-6.646,6.646-9.97,14.621-9.97,23.929v142.914    c0,9.541,3.323,17.619,9.97,24.266c6.646,6.646,14.731,9.97,24.26,9.97c9.522,0,17.558-3.323,24.101-9.97    c6.53-6.646,9.804-14.725,9.804-24.266V213.039c0-9.309-3.323-17.283-9.97-23.929C94.062,182.464,86.082,179.141,76.774,179.141z"/>
                <path d="M351.972,50.847L375.57,7.315c1.549-2.882,0.998-5.092-1.658-6.646c-2.883-1.34-5.098-0.661-6.646,1.989l-23.928,43.88    c-21.055-9.309-43.324-13.972-66.807-13.972c-23.488,0-45.759,4.664-66.806,13.972l-23.929-43.88    c-1.555-2.65-3.77-3.323-6.646-1.989c-2.662,1.561-3.213,3.764-1.658,6.646l23.599,43.532    c-23.929,12.203-42.987,29.198-57.167,51.022c-14.18,21.836-21.273,45.698-21.273,71.628h307.426    c0-25.924-7.094-49.787-21.273-71.628C394.623,80.045,375.675,63.05,351.972,50.847z M215.539,114.165    c-2.552,2.558-5.6,3.831-9.143,3.831c-3.55,0-6.536-1.273-8.972-3.831c-2.436-2.546-3.654-5.582-3.654-9.137    c0-3.543,1.218-6.585,3.654-9.137c2.436-2.546,5.429-3.819,8.972-3.819s6.591,1.273,9.143,3.819    c2.546,2.558,3.825,5.594,3.825,9.137C219.357,108.577,218.079,111.619,215.539,114.165z M355.625,114.165    c-2.441,2.558-5.434,3.831-8.971,3.831c-3.551,0-6.598-1.273-9.145-3.831c-2.551-2.546-3.824-5.582-3.824-9.137    c0-3.543,1.273-6.585,3.824-9.137c2.547-2.546,5.594-3.819,9.145-3.819c3.543,0,6.529,1.273,8.971,3.819    c2.438,2.558,3.654,5.594,3.654,9.137C359.279,108.577,358.062,111.619,355.625,114.165z"/>
                <path d="M123.971,406.804c0,10.202,3.543,18.838,10.63,25.925c7.093,7.087,15.729,10.63,25.924,10.63h24.596l0.337,75.454    c0,9.528,3.323,17.619,9.969,24.266s14.627,9.97,23.929,9.97c9.523,0,17.613-3.323,24.26-9.97s9.97-14.737,9.97-24.266v-75.447    h45.864v75.447c0,9.528,3.322,17.619,9.969,24.266s14.73,9.97,24.26,9.97c9.523,0,17.613-3.323,24.26-9.97    s9.969-14.737,9.969-24.266v-75.447h24.928c9.969,0,18.494-3.544,25.594-10.631c7.086-7.087,10.631-15.723,10.631-25.924V185.45    H123.971V406.804z"/>
                <path d="M476.275,179.141c-9.309,0-17.283,3.274-23.93,9.804c-6.646,6.542-9.969,14.578-9.969,24.094v142.914    c0,9.541,3.322,17.619,9.969,24.266s14.627,9.97,23.93,9.97c9.523,0,17.613-3.323,24.26-9.97s9.969-14.725,9.969-24.266V213.039    c0-9.517-3.322-17.552-9.969-24.094C493.888,182.415,485.798,179.141,476.275,179.141z"/>
            </g>
        </g>
    </symbol>

    <symbol id="icon-IOS" viewBox="0 0 24 24">
        <path xmlns="http://www.w3.org/2000/svg" d="M1.1 6.05C.486 6.05 0 6.53 0 7.13A1.08 1.08 0 0 0 1.1 8.21C1.72 8.21 2.21 7.73 2.21 7.13C2.21 6.53 1.72 6.05 1.1 6.05M8.71 6.07C5.35 6.07 3.25 8.36 3.25 12C3.25 15.67 5.35 17.95 8.71 17.95C12.05 17.95 14.16 15.67 14.16 12C14.16 8.36 12.05 6.07 8.71 6.07M19.55 6.07C17.05 6.07 15.27 7.45 15.27 9.5C15.27 11.13 16.28 12.15 18.4 12.64L19.89 13C21.34 13.33 21.93 13.81 21.93 14.64C21.93 15.6 20.96 16.28 19.58 16.28C18.17 16.28 17.11 15.59 17 14.53H15C15.08 16.65 16.82 17.95 19.46 17.95C22.25 17.95 24 16.58 24 14.4C24 12.69 23 11.72 20.68 11.19L19.35 10.89C17.94 10.55 17.36 10.1 17.36 9.34C17.36 8.38 18.24 7.74 19.54 7.74C20.85 7.74 21.75 8.39 21.85 9.46H23.81C23.76 7.44 22.09 6.07 19.55 6.07M8.71 7.82C10.75 7.82 12.06 9.45 12.06 12C12.06 14.57 10.75 16.2 8.71 16.2C6.65 16.2 5.35 14.57 5.35 12C5.35 9.45 6.65 7.82 8.71 7.82M.111 9.31V17.76H2.1V9.31H.11Z"/>
    </symbol>
</svg>